<?xml version="1.0" encoding="UTF-8" standalone="no"?>
<!-- Created with Inkscape (http://www.inkscape.org/) -->

<svg
   xmlns:dc="http://purl.org/dc/elements/1.1/"
   xmlns:cc="http://creativecommons.org/ns#"
   xmlns:rdf="http://www.w3.org/1999/02/22-rdf-syntax-ns#"
   xmlns:svg="http://www.w3.org/2000/svg"
   xmlns="http://www.w3.org/2000/svg"
   xmlns:sodipodi="http://sodipodi.sourceforge.net/DTD/sodipodi-0.dtd"
   xmlns:inkscape="http://www.inkscape.org/namespaces/inkscape"
   width="210mm"
   height="297mm"
   viewBox="0 0 210 297"
   version="1.1"
   id="svg1058"
   inkscape:version="0.92.2 (5c3e80d, 2017-08-06)"
   sodipodi:docname="Page1Mob.svg">
  <defs
     id="defs1052">
    <inkscape:path-effect
       effect="spiro"
       id="path-effect1677"
       is_visible="true" />
    <inkscape:path-effect
       effect="spiro"
       id="path-effect1673"
       is_visible="true" />
    <inkscape:path-effect
       effect="spiro"
       id="path-effect1669"
       is_visible="true" />
    <inkscape:path-effect
       effect="spiro"
       id="path-effect1665"
       is_visible="true" />
    <inkscape:path-effect
       effect="spiro"
       id="path-effect1641"
       is_visible="true" />
    <inkscape:path-effect
       effect="spiro"
       id="path-effect1637"
       is_visible="true" />
    <inkscape:path-effect
       effect="spiro"
       id="path-effect1633"
       is_visible="true" />
  </defs>
  <sodipodi:namedview
     id="base"
     pagecolor="#ffffff"
     bordercolor="#666666"
     borderopacity="1.0"
     inkscape:pageopacity="0.0"
     inkscape:pageshadow="2"
     inkscape:zoom="0.7"
     inkscape:cx="552.82359"
     inkscape:cy="-421.3973"
     inkscape:document-units="mm"
     inkscape:current-layer="layer1"
     showgrid="false"
     inkscape:window-width="2560"
     inkscape:window-height="1377"
     inkscape:window-x="-8"
     inkscape:window-y="-8"
     inkscape:window-maximized="1" />
  <metadata
     id="metadata1055">
    <rdf:RDF>
      <cc:Work
         rdf:about="">
        <dc:format>image/svg+xml</dc:format>
        <dc:type
           rdf:resource="http://purl.org/dc/dcmitype/StillImage" />
        <dc:title></dc:title>
      </cc:Work>
    </rdf:RDF>
  </metadata>
  <g
     inkscape:label="Layer 1"
     inkscape:groupmode="layer"
     id="layer1">
    <rect
       style="opacity:1;fill:#ffffff;fill-opacity:1;stroke:#000000;stroke-width:0;stroke-linecap:round;stroke-linejoin:round;stroke-miterlimit:4;stroke-dasharray:none;stroke-opacity:1;paint-order:normal"
       id="rect1603"
       width="377.22021"
       height="411.99402"
       x="-24.190477"
       y="-27.303572" />
    <rect
       style="opacity:1;fill:#ffffff;fill-opacity:1;stroke:#000000;stroke-width:1;stroke-linecap:round;stroke-linejoin:round;stroke-miterlimit:4;stroke-dasharray:none;stroke-opacity:1;paint-order:normal"
       id="rect1605"
       width="236.61308"
       height="656.92261"
       x="-417.28571"
       y="-160.3512" />
    <rect
       style="opacity:1;fill:#ffffff;fill-opacity:1;stroke:#000000;stroke-width:1;stroke-linecap:round;stroke-linejoin:round;stroke-miterlimit:4;stroke-dasharray:none;stroke-opacity:1;paint-order:normal"
       id="rect1607"
       width="236.61308"
       height="68.035721"
       x="-417.28571"
       y="-160.3512" />
    <ellipse
       style="opacity:1;fill:#ffffff;fill-opacity:1;stroke:#000000;stroke-width:1;stroke-linecap:round;stroke-linejoin:round;stroke-miterlimit:4;stroke-dasharray:none;stroke-opacity:1;paint-order:normal"
       id="path1609"
       cx="-380.24402"
       cy="-127.65625"
       rx="24.946428"
       ry="25.135416" />
    <text
       xml:space="preserve"
       style="font-style:normal;font-weight:normal;font-size:10.58333302px;line-height:1.25;font-family:sans-serif;letter-spacing:0px;word-spacing:0px;fill:#000000;fill-opacity:1;stroke:none;stroke-width:0.26458332"
       x="-391.58334"
       y="-125.95535"
       id="text1613"><tspan
         sodipodi:role="line"
         id="tspan1611"
         x="-391.58334"
         y="-125.95535"
         style="stroke-width:0.26458332">Logo</tspan></text>
    <flowRoot
       xml:space="preserve"
       id="flowRoot1615"
       style="font-style:normal;font-weight:normal;font-size:40px;line-height:1.25;font-family:sans-serif;letter-spacing:0px;word-spacing:0px;fill:#000000;fill-opacity:1;stroke:none"
       transform="matrix(0.26458333,0,0,0.26458333,6.0476191,5.6696429)"><flowRegion
         id="flowRegion1617"><rect
           id="rect1619"
           width="332.85715"
           height="128.57143"
           x="-1274.2858"
           y="-530.33746" /></flowRegion><flowPara
         id="flowPara1621"
         style="-inkscape-font-specification:'sans-serif, Normal';font-family:sans-serif;font-weight:normal;font-style:normal;font-stretch:normal;font-variant:normal;font-size:60.00000076px;text-anchor:start;text-align:start;writing-mode:lr;font-variant-ligatures:normal;font-variant-caps:normal;font-variant-numeric:normal;font-feature-settings:normal">Status</flowPara></flowRoot>    <text
       xml:space="preserve"
       style="font-style:normal;font-weight:normal;font-size:10.58333302px;line-height:1.25;font-family:sans-serif;letter-spacing:0px;word-spacing:0px;fill:#000000;fill-opacity:1;stroke:none;stroke-width:0.26458332"
       x="-254.37798"
       y="-128.6012"
       id="text1625"><tspan
         sodipodi:role="line"
         id="tspan1623"
         x="-254.37798"
         y="-128.6012"
         style="font-style:normal;font-variant:normal;font-weight:normal;font-stretch:normal;font-size:15.875px;font-family:sans-serif;-inkscape-font-specification:'sans-serif, Normal';font-variant-ligatures:normal;font-variant-caps:normal;font-variant-numeric:normal;font-feature-settings:normal;text-align:start;writing-mode:lr-tb;text-anchor:start;stroke-width:0.26458332">How to</tspan><tspan
         sodipodi:role="line"
         x="-254.37798"
         y="-108.75744"
         style="font-style:normal;font-variant:normal;font-weight:normal;font-stretch:normal;font-size:15.875px;font-family:sans-serif;-inkscape-font-specification:'sans-serif, Normal';font-variant-ligatures:normal;font-variant-caps:normal;font-variant-numeric:normal;font-feature-settings:normal;text-align:start;writing-mode:lr-tb;text-anchor:start;stroke-width:0.26458332"
         id="tspan1627">Tutorial</tspan></text>
    <rect
       style="opacity:1;fill:#ffffff;fill-opacity:1;stroke:#000000;stroke-width:1;stroke-linecap:round;stroke-linejoin:round;stroke-miterlimit:4;stroke-dasharray:none;stroke-opacity:1;paint-order:normal"
       id="rect1629"
       width="235.85713"
       height="278.56845"
       x="-417.28571"
       y="-92.315475" />
    <path
       style="fill:none;stroke:#000000;stroke-width:0.26458332px;stroke-linecap:butt;stroke-linejoin:miter;stroke-opacity:1"
       d="m -404.81249,74.372022 c 2.43178,-0.0294 4.85901,-0.412648 7.18155,-1.133928 0.76101,-0.236336 1.51036,-0.508558 2.26785,-0.755951 6.41734,-2.095883 13.28182,-2.267858 20.03275,-2.267858 h 3.02379 0.75596 c 0.126,0 0.25206,-0.0042 0.37799,0 0.40375,0.01361 0.80275,0.146609 1.13392,0.377976 1.22276,-0.485691 2.67739,-0.340228 3.77976,0.377976 0.11915,0.07762 0.23442,0.161484 0.35799,0.23185 0.12357,0.07036 0.25698,0.127453 0.39795,0.146126 0.12942,0.01714 0.26115,0.0014 0.38891,-0.02546 0.12775,-0.02687 0.25294,-0.06481 0.38045,-0.09282 0.1275,-0.02802 0.25874,-0.0461 0.38858,-0.03245 0.12983,0.01365 0.25897,0.06119 0.35397,0.150734 0.0659,0.06215 0.11275,0.14134 0.16774,0.213354 0.0275,0.03601 0.0573,0.07052 0.092,0.09962 0.0347,0.0291 0.0746,0.05273 0.1182,0.06501 0.0609,0.01714 0.12548,0.01225 0.18853,0.0076 0.063,-0.0047 0.12623,-0.0076 0.18946,-0.0076 h 1.13392 c 0.36384,0 0.7294,0.0072 1.0876,0.07102 0.3582,0.06379 0.7052,0.182037 1.0368,0.331772 0.3316,0.149734 0.64904,0.32945 0.98129,0.477743 0.33224,0.148293 0.68839,0.264735 1.05205,0.253393 0.32562,-0.01016 0.6386,-0.122442 0.96004,-0.175444 0.16072,-0.0265 0.32533,-0.03811 0.48649,-0.01444 0.16116,0.02367 0.31932,0.08428 0.44334,0.189883 0.068,0.05793 0.12446,0.12797 0.18281,0.195641 0.0584,0.06767 0.11992,0.134148 0.19517,0.182334 0.10855,0.06951 0.24004,0.09681 0.36894,0.09706 0.1289,2.5e-4 0.25641,-0.02508 0.38205,-0.0539 0.12563,-0.02882 0.25087,-0.06132 0.37895,-0.07582 0.12808,-0.0145 0.26046,-0.01035 0.38197,0.03266 0.17364,0.06147 0.3165,0.204332 0.37796,0.377976 0.59435,0.25606 1.24278,0.385746 1.88989,0.377976 0.63218,-0.0076 1.27416,-0.143478 1.88989,0 0.0631,0.01471 0.12594,0.03236 0.19053,0.03746 0.0646,0.0051 0.13234,-0.0033 0.18743,-0.03746 0.032,-0.01982 0.0589,-0.04793 0.0772,-0.08082 0.0183,-0.0329 0.0281,-0.07051 0.0281,-0.108166 0,-0.03766 -0.01,-0.07527 -0.0281,-0.108166 -0.0183,-0.0329 -0.0452,-0.061 -0.0772,-0.08082"
       id="path1631"
       inkscape:connector-curvature="0"
       inkscape:path-effect="#path-effect1633"
       inkscape:original-d="m -404.81249,74.372022 c 1.66957,-6.251104 4.83039,-0.546142 7.18155,-1.133928 0.77304,-0.193262 1.48186,-0.624951 2.26785,-0.755951 13.56299,-2.260502 11.65612,-2.267858 20.03275,-2.267858 1.00793,0 2.01586,0 3.02379,0 0.25198,0 0.50397,0 0.75596,0 0.126,0 0.25575,-0.03056 0.37799,0 0.3865,0.09663 0.75594,0.251984 1.13392,0.377976 1.25992,0.125992 2.53077,0.169812 3.77976,0.377976 0.27789,0.04632 0.48263,0.309647 0.75594,0.377976 0.48892,0.122229 1.03381,-0.159369 1.51191,0 0.16904,0.05634 0.2186,0.298291 0.37798,0.377976 0.11269,0.05634 0.25199,0 0.37799,0 0.37795,0 0.75594,0 1.13392,0 1.73072,0 -0.13274,-0.0362 4.15774,1.13393 0.35626,0.09717 1.66817,-0.110853 1.88987,0 0.15938,0.07968 0.2186,0.298291 0.37798,0.377975 0.23757,0.118783 1.27434,-0.118784 1.51191,0 0.15936,0.07968 0.25199,0.251984 0.37796,0.377976 0.62997,0.125992 1.25619,0.27236 1.88989,0.377976 0.48504,0.08084 1.40584,0 1.88989,0 0.12597,0 0.28888,0.08909 0.37796,0 0.0891,-0.08909 0,-0.251984 0,-0.377976" />
    <path
       style="fill:none;stroke:#000000;stroke-width:0.26458332px;stroke-linecap:butt;stroke-linejoin:miter;stroke-opacity:1"
       d="m -328.83927,76.639879 c 2.70576,-0.741856 5.50986,-1.124232 8.31546,-1.133927 0.25199,-8.71e-4 0.50398,0.0012 0.75596,0 3.53804,-0.01752 7.04573,-0.697731 10.58334,-0.755954 0.88184,-0.01451 1.76388,0 2.64583,0 h 3.40178 10.58333"
       id="path1635"
       inkscape:connector-curvature="0"
       inkscape:path-effect="#path-effect1637"
       inkscape:original-d="m -328.83927,76.639879 c 3.64067,-0.719788 4.70456,-0.833019 8.31546,-1.133927 0.25111,-0.02093 0.50453,0.01678 0.75596,0 3.52894,-0.235262 7.05493,-0.512617 10.58334,-0.755954 0.87984,-0.06068 1.76387,0 2.64583,0 1.13393,0 2.26785,0 3.40178,0 3.52776,0 7.05556,0 10.58333,0" />
    <path
       style="fill:none;stroke:#000000;stroke-width:0.26458332px;stroke-linecap:butt;stroke-linejoin:miter;stroke-opacity:1"
       d="m -255.88988,79.663689 c 2.99003,0.552957 6.0814,0.552957 9.07143,0 2.90014,-0.536333 5.74519,-1.590828 8.69345,-1.511904 0.25205,0.0067 0.50475,0.02182 0.75595,0 0.45828,-0.0398 0.89629,-0.20072 1.32616,-0.364471 0.42987,-0.163751 0.86338,-0.333219 1.31968,-0.391483 0.62537,-0.07985 1.25943,0 1.88988,0 h 0.37798 c 0.0632,0 0.12637,0.0028 0.18941,0.0072 0.0631,0.0045 0.12752,0.0092 0.18856,-0.0072 0.0438,-0.01179 0.0842,-0.03454 0.11971,-0.06288 0.0354,-0.02835 0.0661,-0.06223 0.0942,-0.09792 0.0561,-0.07139 0.10226,-0.150684 0.16408,-0.217169 0.11216,-0.120615 0.27069,-0.191774 0.4332,-0.218515 0.16252,-0.02674 0.32945,-0.01174 0.49103,0.02018 0.32316,0.06384 0.63626,0.195164 0.96565,0.198338 0.26082,0.0025 0.5152,-0.07587 0.76137,-0.162095 0.24617,-0.08623 0.49193,-0.181782 0.75053,-0.215881 0.37504,-0.04945 0.75564,0 1.13393,0 h 2.26786 3.40178 c 0.25326,0 0.50626,-0.01365 0.75855,-0.03576 0.25229,-0.02211 0.5133,-0.04493 0.75336,0.03576 0.21674,0.07286 0.39553,0.226112 0.56791,0.37634 0.17238,0.150228 0.3501,0.304357 0.56602,0.379612 0.18344,0.06394 0.38349,0.06633 0.57599,0.04014 0.19249,-0.02619 0.37997,-0.07992 0.56861,-0.126324 0.18864,-0.04641 0.38101,-0.08581 0.57525,-0.08242 0.19424,0.0034 0.39227,0.05248 0.54801,0.168607 0.14305,0.106661 0.24205,0.262372 0.37797,0.377978 0.15661,0.1332 0.36137,0.208504 0.56697,0.208504 0.20559,0 0.41035,-0.0753 0.56696,-0.208504 -0.0514,0.04832 -0.0818,0.118402 -0.0818,0.188988 0,0.07059 0.0303,0.140664 0.0818,0.188988 0.0477,0.04476 0.11129,0.07015 0.17602,0.07932 0.0647,0.0092 0.13079,0.003 0.19503,-0.0092 0.12849,-0.02427 0.25416,-0.07238 0.3849,-0.07016 0.14283,0.0024 0.27806,0.06506 0.39885,0.141326 0.12079,0.07627 0.23221,0.167303 0.3571,0.23665 0.19587,0.108758 0.4197,0.16072 0.64331,0.174486 0.22362,0.01377 0.44797,-0.0094 0.6694,-0.04356 0.44285,-0.06825 0.88782,-0.180697 1.33313,-0.130928 0.32674,0.03652 0.63807,0.159196 0.96277,0.210788 0.16235,0.0258 0.32912,0.03354 0.49072,0.0034 0.16161,-0.03011 0.31829,-0.09988 0.43639,-0.214223 0.0645,-0.06248 0.1163,-0.136685 0.1737,-0.205779 0.0574,-0.06909 0.12264,-0.134732 0.20428,-0.172197 0.0668,-0.03067 0.14201,-0.04089 0.21536,-0.0357 0.0734,0.0052 0.14507,0.02535 0.21319,0.05304 0.13625,0.05538 0.25832,0.140256 0.39008,0.205593 0.0659,0.03267 0.13456,0.06055 0.20633,0.07654 0.0718,0.01599 0.14693,0.01982 0.21888,0.0047 0.072,-0.01515 0.14061,-0.04999 0.1908,-0.103737 0.0502,-0.05375 0.0807,-0.126968 0.0773,-0.200424 -0.003,-0.06667 -0.0328,-0.128981 -0.0465,-0.194288 -0.007,-0.03265 -0.01,-0.06665 -0.003,-0.09937 0.007,-0.03273 0.0231,-0.06422 0.0498,-0.08431 0.0257,-0.01935 0.0586,-0.02693 0.0907,-0.02776 0.0321,-8.36e-4 0.064,0.0044 0.0957,0.0099 0.0633,0.01098 0.12732,0.01783 0.19158,0.01783 h 1.13392 c 0.0631,0 0.12611,0.0016 0.18913,0.0041 0.063,0.0025 0.12648,0.0052 0.18885,-0.0041 0.11546,-0.0173 0.22122,-0.07667 0.31129,-0.15095 0.0901,-0.07428 0.16642,-0.163487 0.24399,-0.250738 0.0776,-0.08725 0.15765,-0.173723 0.2532,-0.240811 0.0956,-0.06709 0.2087,-0.114167 0.32545,-0.113455 0.0639,3.9e-4 0.12676,0.01492 0.19025,0.02205 0.0635,0.0071 0.13045,0.0063 0.18773,-0.02205 0.035,-0.01731 0.0651,-0.04456 0.0857,-0.07774 0.0206,-0.03318 0.0317,-0.07218 0.0317,-0.111243 0,-0.03906 -0.0111,-0.07806 -0.0317,-0.111243 -0.0206,-0.03318 -0.0506,-0.06044 -0.0857,-0.07775"
       id="path1639"
       inkscape:connector-curvature="0"
       inkscape:path-effect="#path-effect1641"
       inkscape:original-d="m -255.88988,79.663689 c 2.93873,-1.239497 6.07598,0.413165 9.07143,0 2.91373,-0.401892 5.79216,-1.028357 8.69345,-1.511904 0.24856,-0.04143 0.5115,0.06111 0.75595,0 0.88985,-0.222464 1.75599,-0.53349 2.64584,-0.755954 0.31322,-0.07831 1.49186,0 1.88988,0 0.12599,0 0.25198,0 0.37798,0 0.12599,0 0.26528,0.05635 0.37797,0 0.15937,-0.07968 0.20894,-0.32163 0.37798,-0.377976 0.38807,-0.129355 1.45826,0.07194 1.88988,0 0.51241,-0.0854 1.00251,-0.276098 1.5119,-0.377976 0.37064,-0.07412 0.75596,0 1.13393,0 0.75595,0 1.51191,0 2.26786,0 1.13393,0 2.26786,0 3.40178,0 0.19766,0 1.41252,-0.04969 1.51191,0 1.15266,0.576332 -0.6913,0.299646 1.13393,0.755952 0.33308,0.08327 2.04424,-0.111805 2.26786,0 0.15936,0.07968 0.20894,0.321633 0.37797,0.377978 0.002,5.3e-4 1.13357,-2.64e-4 1.13393,0 0.0891,0.08909 -0.11269,0.321631 0,0.377976 0.22538,0.112692 0.51149,-0.06112 0.75595,0 0.27332,0.06833 0.48264,0.309647 0.75595,0.377976 0.28803,0.07201 2.25477,0 2.64584,0 0.35599,0 1.67486,0.07167 1.88988,0 0.16904,-0.05635 0.20325,-0.343032 0.37798,-0.377976 0.49418,-0.09884 1.02298,0.12223 1.5119,0 0.12223,-0.03056 -0.0891,-0.288888 0,-0.377976 0.0891,-0.08909 0.25198,0 0.37798,0 0.37797,0 0.75595,0 1.13392,0 0.126,0 0.26529,0.05634 0.37798,0 1.72985,-0.864925 -1.60391,0.15666 1.13393,-0.755954 0.11953,-0.03984 0.28889,0.08909 0.37798,0 0.0891,-0.08909 0,-0.251984 0,-0.377976" />
    <text
       xml:space="preserve"
       style="font-style:normal;font-weight:normal;font-size:10.58333302px;line-height:1.25;font-family:sans-serif;letter-spacing:0px;word-spacing:0px;fill:#000000;fill-opacity:1;stroke:none;stroke-width:0.26458332"
       x="-342.82443"
       y="-6.1369047"
       id="text1645"><tspan
         sodipodi:role="line"
         id="tspan1643"
         x="-342.82443"
         y="-6.1369047"
         style="stroke-width:0.26458332;-inkscape-font-specification:'sans-serif, Normal';font-family:sans-serif;font-weight:normal;font-style:normal;font-stretch:normal;font-variant:normal;font-size:21.16666667px;text-anchor:start;text-align:start;writing-mode:lr;font-variant-ligatures:normal;font-variant-caps:normal;font-variant-numeric:normal;font-feature-settings:normal">ABOUT</tspan></text>
    <rect
       style="opacity:1;fill:#ffffff;fill-opacity:1;stroke:#000000;stroke-width:1;stroke-linecap:round;stroke-linejoin:round;stroke-miterlimit:4;stroke-dasharray:none;stroke-opacity:1;paint-order:normal"
       id="rect1647"
       width="80.130951"
       height="30.238094"
       x="-334.8869"
       y="142.40773" />
    <text
       xml:space="preserve"
       style="font-style:normal;font-weight:normal;font-size:10.58333302px;line-height:1.25;font-family:sans-serif;letter-spacing:0px;word-spacing:0px;fill:#000000;fill-opacity:1;stroke:none;stroke-width:0.26458332"
       x="-319.76785"
       y="155.25893"
       id="text1651"><tspan
         sodipodi:role="line"
         id="tspan1649"
         x="-319.76785"
         y="155.25893"
         style="stroke-width:0.26458332"> GO TO </tspan><tspan
         sodipodi:role="line"
         x="-319.76785"
         y="168.4881"
         style="stroke-width:0.26458332"
         id="tspan1653">CANVAS</tspan></text>
    <text
       xml:space="preserve"
       style="font-style:normal;font-weight:normal;font-size:10.58333302px;line-height:1.25;font-family:sans-serif;letter-spacing:0px;word-spacing:0px;fill:#000000;fill-opacity:1;stroke:none;stroke-width:0.26458332"
       x="-406.32437"
       y="320.8125"
       id="text1657"><tspan
         sodipodi:role="line"
         id="tspan1655"
         x="-406.32437"
         y="320.8125"
         style="font-style:normal;font-variant:normal;font-weight:normal;font-stretch:normal;font-size:21.16666603px;font-family:sans-serif;-inkscape-font-specification:'sans-serif, Normal';font-variant-ligatures:normal;font-variant-caps:normal;font-variant-numeric:normal;font-feature-settings:normal;text-align:start;writing-mode:lr-tb;text-anchor:start;stroke-width:0.26458332">TUTORIAL IN SHORT</tspan><tspan
         sodipodi:role="line"
         x="-406.32437"
         y="347.27084"
         style="font-style:normal;font-variant:normal;font-weight:normal;font-stretch:normal;font-size:21.16666603px;font-family:sans-serif;-inkscape-font-specification:'sans-serif, Normal';font-variant-ligatures:normal;font-variant-caps:normal;font-variant-numeric:normal;font-feature-settings:normal;text-align:start;writing-mode:lr-tb;text-anchor:start;stroke-width:0.26458332"
         id="tspan1659">AND </tspan><tspan
         sodipodi:role="line"
         x="-406.32437"
         y="373.72916"
         style="font-style:normal;font-variant:normal;font-weight:normal;font-stretch:normal;font-size:21.16666603px;font-family:sans-serif;-inkscape-font-specification:'sans-serif, Normal';font-variant-ligatures:normal;font-variant-caps:normal;font-variant-numeric:normal;font-feature-settings:normal;text-align:start;writing-mode:lr-tb;text-anchor:start;stroke-width:0.26458332"
         id="tspan1661">REST OF THE LINKS</tspan></text>
    <path
       style="fill:none;stroke:#000000;stroke-width:0.26458332px;stroke-linecap:butt;stroke-linejoin:miter;stroke-opacity:1"
       d="m -173.11309,187.00893 c 0.0572,-0.48471 0.32748,-0.94041 0.72545,-1.22295 0.39798,-0.28255 0.91733,-0.38747 1.39378,-0.2816 0.47644,0.10588 0.90248,0.42089 1.14333,0.8454 0.24085,0.4245 0.29273,0.9518 0.13922,1.4151 -0.0209,0.0631 -0.0456,0.12589 -0.0526,0.19204 -0.003,0.0331 -0.002,0.0669 0.006,0.0991 0.008,0.0322 0.0237,0.0629 0.0468,0.0868 0.0233,0.0241 0.0537,0.0408 0.086,0.05 0.0323,0.009 0.0664,0.0108 0.0998,0.008 0.0668,-0.007 0.12984,-0.0326 0.19217,-0.0575 0.62245,-0.2482 1.29087,-0.40587 1.95999,-0.36942 0.66912,0.0365 1.34001,0.27955 1.81977,0.7474 0.16882,0.16463 0.31259,0.35469 0.49181,0.50794 0.0896,0.0766 0.18824,0.14387 0.2969,0.18963 0.10865,0.0458 0.22784,0.0695 0.34522,0.0584 0.10563,-0.01 0.20659,-0.0475 0.30425,-0.089 0.0977,-0.0415 0.19398,-0.0874 0.29623,-0.11572 0.10224,-0.0283 0.21252,-0.0382 0.31388,-0.007 0.0507,0.0157 0.0985,0.0417 0.13731,0.0778 0.0388,0.0361 0.0685,0.0826 0.0823,0.13382 0.0164,0.0612 0.01,0.12592 0.003,0.18884 -0.007,0.0629 -0.0157,0.12716 -0.003,0.18914 0.01,0.0472 0.0324,0.0916 0.0632,0.12871 0.0309,0.0371 0.0701,0.067 0.11339,0.0884 0.0866,0.0427 0.18785,0.0504 0.2828,0.0329 0.0949,-0.0175 0.18416,-0.059 0.266,-0.1102 0.0818,-0.0512 0.15704,-0.11222 0.23256,-0.17237 0.0755,-0.0601 0.15193,-0.11983 0.2356,-0.168 0.0837,-0.0482 0.17536,-0.0848 0.27133,-0.0953 0.096,-0.0105 0.19666,0.007 0.27803,0.0586 0.0407,0.026 0.0761,0.0604 0.10199,0.1012 0.0259,0.0408 0.042,0.0879 0.0449,0.13607 0.004,0.0643 -0.015,0.12752 -0.0254,0.19111 -0.005,0.0318 -0.008,0.0642 -0.005,0.0963 0.003,0.0321 0.0125,0.064 0.0306,0.0906 0.0185,0.0272 0.0456,0.048 0.0757,0.0615 0.03,0.0135 0.0629,0.0199 0.0958,0.0214 0.0658,0.003 0.13086,-0.0128 0.19463,-0.0292 0.12754,-0.0329 0.2581,-0.0537 0.38981,-0.0537 h 1.51191 c 0.12608,0 0.25285,-0.0155 0.37797,0 0.11443,0.0142 0.22257,0.0627 0.31863,0.12645 0.0961,0.0638 0.18109,0.14261 0.26372,0.22303 0.0826,0.0804 0.16353,0.16297 0.25312,0.23555 0.0896,0.0726 0.18876,0.13541 0.29846,0.17092 0.18065,0.0585 0.37595,0.0419 0.56515,0.0259 0.1892,-0.016 0.3789,-0.0259 0.56878,-0.0259 h 2.64583 10.20536 3.02381 c 0.19179,0 0.38302,-0.0176 0.5727,-0.046 0.0948,-0.0142 0.1903,-0.0278 0.28617,-0.0257 0.0959,0.002 0.19359,0.0211 0.27506,0.0717 0.0761,0.0472 0.13332,0.11883 0.18899,0.18899 0.0557,0.0702 0.11289,0.14174 0.18898,0.18898 0.0815,0.0506 0.17919,0.0696 0.27506,0.0717 0.0959,0.002 0.19133,-0.0115 0.28617,-0.0257 0.18968,-0.0284 0.38091,-0.046 0.5727,-0.046 h 2.26786 4.91369 c 0.13665,0 0.27395,0.004 0.40812,0.0301 0.13416,0.0259 0.26331,0.0723 0.39251,0.11682 0.1292,0.0445 0.26348,0.087 0.39974,0.0767 0.0681,-0.005 0.13606,-0.0244 0.19299,-0.0622 0.0569,-0.0378 0.10221,-0.0951 0.11854,-0.16143 0.0152,-0.0617 0.005,-0.12636 -0.004,-0.18925 -0.009,-0.0629 -0.0163,-0.12845 0.004,-0.18872 0.0164,-0.0493 0.0508,-0.0919 0.0935,-0.12147 0.0428,-0.0296 0.0935,-0.0466 0.14519,-0.0526 0.10329,-0.012 0.20687,0.0189 0.30272,0.0592 0.0959,0.0403 0.18792,0.0906 0.28749,0.12053 0.0498,0.015 0.10141,0.0248 0.1534,0.0252 0.052,3.6e-4 0.10445,-0.009 0.15163,-0.0308 0.0815,-0.0377 0.14164,-0.10941 0.196,-0.18095 0.0544,-0.0715 0.10748,-0.14682 0.18198,-0.19703 0.0797,-0.0537 0.17781,-0.0743 0.27388,-0.0765 0.0961,-0.002 0.19165,0.0123 0.28654,0.0274 0.18978,0.0303 0.38133,0.0491 0.57351,0.0491 h 3.02381 c 0.13589,0 0.27239,0.004 0.40597,0.029 0.13358,0.0249 0.26248,0.0697 0.3914,0.11261 0.12892,0.043 0.26254,0.084 0.39809,0.0744 0.0678,-0.005 0.1354,-0.0231 0.19285,-0.0594 0.0575,-0.0363 0.10417,-0.0915 0.12359,-0.15658 0.0181,-0.0607 0.012,-0.1258 0.004,-0.18872 -0.008,-0.0629 -0.0168,-0.12711 -0.004,-0.18925 0.01,-0.0483 0.0326,-0.0938 0.0643,-0.13153 0.0317,-0.0377 0.0722,-0.0679 0.11678,-0.0889 0.0892,-0.0421 0.19304,-0.0472 0.2894,-0.0262 0.0964,0.021 0.18591,0.0667 0.26763,0.12188 0.0817,0.0552 0.15637,0.12007 0.23189,0.18351 0.0755,0.0634 0.15248,0.12588 0.2377,0.17552 0.0852,0.0496 0.17953,0.0863 0.27782,0.0943 0.0983,0.008 0.20093,-0.0146 0.27995,-0.0736 0.0395,-0.0295 0.0727,-0.0678 0.0948,-0.11184 0.0221,-0.0441 0.033,-0.094 0.0296,-0.14315 -0.005,-0.0667 -0.0344,-0.12888 -0.0479,-0.19435 -0.007,-0.0327 -0.009,-0.0668 -0.003,-0.0995 0.007,-0.0327 0.0237,-0.0641 0.0505,-0.0841 0.0258,-0.0192 0.0586,-0.0267 0.0907,-0.0275 0.0321,-8.3e-4 0.064,0.004 0.0957,0.01 0.0633,0.0109 0.1273,0.0177 0.19154,0.0177 h 2.26786"
       id="path1663"
       inkscape:connector-curvature="0"
       inkscape:path-effect="#path-effect1665"
       inkscape:original-d="m -173.11309,187.00893 c 1.13393,0.25198 2.2998,0.38862 3.40178,0.75595 0.11953,0.0398 -0.0891,0.28889 0,0.37797 0.0891,0.0891 0.2525,-0.0114 0.37798,0 1.261,0.11464 2.54598,0.0933 3.77976,0.37798 0.44264,0.10215 0.70297,0.6123 1.13393,0.75595 0.35858,0.11953 0.77535,-0.11952 1.13393,0 0.11953,0.0398 -0.0891,0.28889 0,0.37798 0.11603,0.11603 1.77384,-0.11604 1.88988,0 0.0891,0.0891 -0.11269,0.32163 0,0.37798 0.22538,0.11269 0.50397,0 0.75595,0 0.50397,0 1.00794,0 1.51191,0 0.12599,0 0.26528,-0.0563 0.37797,0 0.96027,0.48013 -0.38709,0.45174 1.13393,0.75595 0.37064,0.0741 0.75595,0 1.13393,0 0.88194,0 1.76389,0 2.64583,0 3.40179,0 6.80357,0 10.20536,0 1.00794,0 2.01587,0 3.02381,0 0.17022,0 1.0189,-0.0575 1.13393,0 0.15937,0.0797 0.20511,0.33476 0.37797,0.37797 0.36669,0.0917 0.75596,0 1.13393,0 0.75595,0 1.51191,0 2.26786,0 1.6379,0 3.27579,0 4.91369,0 0.13881,0 1.49669,0.0152 1.5119,0 0.0891,-0.0891 -0.0891,-0.28888 0,-0.37797 0.0773,-0.0773 0.98407,0.0749 1.13393,0 0.15937,-0.0797 0.21861,-0.29829 0.37798,-0.37798 0.11503,-0.0575 0.9637,0 1.13393,0 1.00793,0 2.01587,0 3.02381,0 0.1388,0 1.49669,0.0152 1.5119,0 0.0891,-0.0891 -0.0891,-0.28888 0,-0.37797 0.11704,-0.11704 1.77284,0.11703 1.88988,0 0.0891,-0.0891 -0.0891,-0.28889 0,-0.37798 0.0891,-0.0891 0.25199,0 0.37798,0 0.75595,0 1.5119,0 2.26786,0" />
    <path
       style="fill:none;stroke:#000000;stroke-width:0.26458332px;stroke-linecap:butt;stroke-linejoin:miter;stroke-opacity:1"
       d="m -168.95536,497.70535 c 0.55177,0.32086 1.22559,0.42547 1.84867,0.28701 0.62308,-0.13846 1.18917,-0.5186 1.55312,-1.04295 0.0518,-0.0746 0.0998,-0.15225 0.15938,-0.22084 0.0596,-0.0686 0.13234,-0.12866 0.2186,-0.15715 0.0603,-0.0199 0.12498,-0.0237 0.18845,-0.0204 0.0635,0.003 0.12636,0.0133 0.18952,0.0204 0.64415,0.0721 1.27653,-0.1684 1.88988,-0.37798 1.82907,-0.62501 3.74089,-1.00737 5.66965,-1.13393 0.21826,-0.18213 0.47929,-0.31265 0.75595,-0.37798 0.36881,-0.0871 0.75373,-0.0621 1.13194,-0.0384 0.37821,0.0237 0.75697,0.0384 1.13592,0.0384 h 0.37797 c 0.0642,0 0.12812,0.007 0.19141,0.0172 0.0317,0.005 0.0636,0.0104 0.0956,0.01 0.0321,-8e-4 0.0649,-0.008 0.0909,-0.0269 0.0272,-0.0197 0.0449,-0.0507 0.0525,-0.0835 0.008,-0.0327 0.006,-0.067 -6.3e-4,-0.10002 -0.0127,-0.066 -0.0431,-0.12789 -0.0519,-0.19449 -0.008,-0.0598 0.002,-0.12153 0.0269,-0.17651 0.0247,-0.055 0.0638,-0.1032 0.11116,-0.14045 0.0948,-0.0745 0.2206,-0.10334 0.34075,-0.0933 0.12015,0.0101 0.23507,0.0566 0.33807,0.11923 0.103,0.0627 0.19524,0.14135 0.28563,0.22115 0.0904,0.0798 0.17972,0.16132 0.27831,0.23073 0.0986,0.0694 0.20751,0.1268 0.32526,0.15274 0.11775,0.0259 0.24521,0.0186 0.35292,-0.0356 0.0539,-0.0271 0.10218,-0.0656 0.13894,-0.1134 0.0368,-0.0478 0.0617,-0.10487 0.0699,-0.16461 0.009,-0.0628 -0.001,-0.12647 -0.009,-0.18947 -0.007,-0.063 -0.0112,-0.12824 0.009,-0.18851 0.021,-0.0644 0.0685,-0.11849 0.12619,-0.15397 0.0577,-0.0355 0.12517,-0.0533 0.19277,-0.0579 0.13518,-0.009 0.26846,0.031 0.39724,0.0731 0.12879,0.0421 0.25756,0.0859 0.39084,0.11038 0.13328,0.0245 0.26936,0.0283 0.40486,0.0283 h 10.20536 3.02381 c 0.19149,0 0.38249,0.0167 0.57209,0.0435 0.0948,0.0134 0.19016,0.0263 0.28588,0.0244 0.0957,-0.002 0.19313,-0.0198 0.27596,-0.0678 0.0774,-0.0449 0.13793,-0.1135 0.19472,-0.18267 0.0568,-0.0692 0.11217,-0.14093 0.18325,-0.19531 0.13028,-0.0997 0.3026,-0.13125 0.46624,-0.11982 0.16364,0.0114 0.32166,0.0621 0.4776,0.11305 0.15594,0.0509 0.31344,0.10272 0.4769,0.11653 0.16345,0.0138 0.33602,-0.0139 0.46914,-0.10976 0.0725,-0.0522 0.13019,-0.12202 0.18755,-0.19056 0.0574,-0.0685 0.11627,-0.13753 0.19043,-0.1874 0.10631,-0.0715 0.23714,-0.0988 0.36521,-0.10182 0.12808,-0.003 0.25553,0.0163 0.38205,0.0365 0.25304,0.0403 0.50842,0.0653 0.76464,0.0653 h 3.77977 c 0.1353,0 0.27118,-0.004 0.4043,-0.028 0.13312,-0.0242 0.26184,-0.0675 0.39055,-0.10924 0.12872,-0.0417 0.26183,-0.0815 0.39682,-0.0725 0.0675,0.005 0.13488,0.0221 0.19273,0.0572 0.0579,0.0351 0.10567,0.0886 0.1275,0.15261 0.0205,0.06 0.0175,0.12535 0.0107,0.1884 -0.007,0.0631 -0.0172,0.12647 -0.0107,0.18956 0.008,0.0739 0.0387,0.14477 0.0853,0.20266 0.0466,0.0579 0.10828,0.103 0.1762,0.13317 0.13585,0.0603 0.29266,0.0601 0.43728,0.0258 0.28924,-0.0687 0.53258,-0.26312 0.81307,-0.36162 0.0614,-0.0216 0.125,-0.0385 0.19,-0.0415 0.065,-0.003 0.13175,0.009 0.18798,0.0415 0.0782,0.0455 0.12832,0.12574 0.17961,0.20029 0.0256,0.0373 0.0525,0.074 0.0848,0.10571 0.0323,0.0317 0.0705,0.0583 0.1136,0.072 0.0666,0.0212 0.13957,0.0101 0.20565,-0.0126 0.0661,-0.0227 0.12778,-0.0565 0.19276,-0.0823 0.065,-0.0257 0.13571,-0.0433 0.20457,-0.0315 0.0344,0.006 0.0678,0.0194 0.0953,0.041 0.0275,0.0216 0.0487,0.0516 0.0577,0.0854 0.008,0.0318 0.006,0.0657 -0.001,0.0979 -0.007,0.0322 -0.0181,0.0633 -0.0269,0.0951 -0.009,0.0317 -0.0153,0.0647 -0.0125,0.0975 0.003,0.0328 0.0156,0.0658 0.0404,0.0875 0.0243,0.0213 0.0575,0.0299 0.0897,0.0309 0.0323,9.6e-4 0.0643,-0.005 0.096,-0.011 0.0634,-0.0122 0.12765,-0.0199 0.19222,-0.0199 h 0.37797 2.64584 c 0.064,0 0.12782,-0.006 0.19106,-0.016 0.0316,-0.005 0.0635,-0.01 0.0955,-0.009 0.032,7.2e-4 0.0647,0.007 0.0914,0.0249 0.0204,0.0134 0.0366,0.0326 0.049,0.0536 0.0124,0.0211 0.0212,0.044 0.0289,0.0672 0.0153,0.0464 0.0271,0.0945 0.051,0.13711 0.0239,0.0426 0.0606,0.0785 0.10534,0.0981 0.0448,0.0196 0.0949,0.0219 0.14375,0.0219 h 2.64583 c 0.0647,0 0.12906,-0.008 0.19249,-0.0207 0.0317,-0.006 0.0638,-0.0125 0.0961,-0.0115 0.0323,0.001 0.0657,0.0101 0.0893,0.0322 0.012,0.0112 0.0211,0.0254 0.0271,0.0408 0.006,0.0153 0.009,0.0318 0.01,0.0482 0.001,0.0329 -0.007,0.0654 -0.0164,0.0969 -0.01,0.0315 -0.021,0.0626 -0.0268,0.0949 -0.006,0.0324 -0.006,0.0667 0.007,0.0972 0.0138,0.0334 0.0422,0.0598 0.0753,0.0745 0.0331,0.0146 0.0704,0.0181 0.10631,0.0134 0.0717,-0.009 0.13535,-0.0491 0.1964,-0.0879 0.0611,-0.0388 0.12468,-0.0785 0.19641,-0.0878 0.0359,-0.005 0.0732,-0.001 0.10631,0.0134 0.0331,0.0146 0.0615,0.041 0.0753,0.0745 0.0125,0.0304 0.0125,0.0648 0.007,0.0972 -0.006,0.0324 -0.0172,0.0635 -0.0268,0.095 -0.01,0.0315 -0.0176,0.064 -0.0164,0.0969 5.9e-4,0.0165 0.004,0.0329 0.01,0.0482 0.006,0.0153 0.0151,0.0296 0.0271,0.0408 0.0237,0.0221 0.057,0.0312 0.0893,0.0322 0.0323,0.001 0.0644,-0.005 0.0962,-0.0115 0.0634,-0.0127 0.12779,-0.0207 0.19249,-0.0207 h 0.37797"
       id="path1667"
       inkscape:connector-curvature="0"
       inkscape:path-effect="#path-effect1669"
       inkscape:original-d="m -168.95536,497.70535 c 5.30672,-2.12268 -0.979,0.1202 3.40179,-0.75594 0.17472,-0.035 0.21861,-0.2983 0.37798,-0.37799 0.11269,-0.0564 0.2537,0.0206 0.37797,0 0.6337,-0.10562 1.25992,-0.25199 1.88988,-0.37798 1.88988,-0.37796 3.77977,-0.75594 5.66965,-1.13393 0.25198,-0.12599 0.48263,-0.30964 0.75595,-0.37798 0.29489,-0.0737 1.82669,0 2.26786,0 0.12599,0 0.25198,0 0.37797,0 0.12599,0 0.28889,0.0891 0.37798,0 0.0891,-0.0891 -0.11953,-0.33811 0,-0.37796 0.2644,-0.0881 2.20786,0.06 2.26786,0 0.0891,-0.0891 -0.0891,-0.2889 0,-0.37798 0.0467,-0.0467 1.27487,0 1.5119,0 3.40179,0 6.80357,0 10.20536,0 1.00793,0 2.01587,0 3.02381,0 0.17022,0 1.0189,0.0575 1.13393,0 0.15937,-0.0797 0.2186,-0.29829 0.37797,-0.37798 0.24554,-0.12277 1.65013,0.11988 1.88988,0 0.15937,-0.0797 0.20894,-0.32163 0.37798,-0.37796 0.2032,-0.0677 1.19189,0 1.5119,0 1.25992,0 2.51984,0 3.77977,0 0.1388,0 1.49669,-0.0154 1.5119,0 0.0891,0.0891 -0.11953,0.33811 0,0.37796 0.47811,0.15938 1.00794,0 1.5119,0 0.126,0 0.26529,-0.0563 0.37798,0 0.15937,0.0797 0.21861,0.29829 0.37798,0.37798 0.22538,0.11269 0.57777,-0.17817 0.75595,0 0.0891,0.0891 -0.0891,0.2889 0,0.37798 0.0891,0.0891 0.25198,0 0.37798,0 0.12599,0 0.25198,0 0.37797,0 0.88195,0 1.76389,0 2.64584,0 0.12599,0 0.28888,-0.0891 0.37797,0 0.50397,0.50395 -0.62996,0.37796 0.37798,0.37796 0.88194,0 1.76389,0 2.64583,0 0.12599,0 0.28889,-0.0891 0.37798,0 0.0891,0.0891 -0.0891,0.2889 0,0.37798 0.17818,0.17817 0.57777,-0.17817 0.75595,0 0.0891,0.0891 -0.0891,0.2889 0,0.37799 0.0891,0.0891 0.25198,0 0.37798,0 0.12599,0 0.25198,0 0.37797,0" />
    <path
       style="fill:none;stroke:#000000;stroke-width:0.26458332px;stroke-linecap:butt;stroke-linejoin:miter;stroke-opacity:1"
       d="m -150.8125,199.10416 c 0.82679,3.97274 1.20791,8.03805 1.13393,12.09524 -0.005,0.25199 -0.0109,0.50416 0,0.75595 0.0333,0.76659 0.22569,1.51582 0.37798,2.26786 1.07842,5.32532 0.1547,10.82177 0,16.25298 -0.007,0.25195 -0.0127,0.50422 0,0.75595 0.0352,0.6995 0.20999,1.38323 0.33584,2.07222 0.12585,0.68898 0.20237,1.40371 0.0421,2.08552 -0.0759,0.32312 -0.20417,0.63438 -0.2487,0.9633 -0.0223,0.16446 -0.023,0.33327 0.0145,0.49492 0.0376,0.16166 0.11501,0.31616 0.23418,0.43166 0.0647,0.0627 0.14021,0.11288 0.20967,0.17021 0.0695,0.0573 0.13452,0.12427 0.16831,0.20776 0.024,0.0593 0.031,0.12444 0.0283,0.18837 -0.003,0.0639 -0.0149,0.12704 -0.0283,0.18961 -0.0269,0.12611 -0.0588,0.25185 -0.068,0.38049 -0.009,0.12863 0.006,0.26238 0.068,0.37546 0.0431,0.0786 0.10678,0.14382 0.17416,0.20287 0.0674,0.0591 0.13925,0.11301 0.20382,0.17511 0.14044,0.13508 0.24333,0.30658 0.30969,0.4898 0.0664,0.18321 0.0971,0.3781 0.10389,0.57285 0.0135,0.38948 -0.0651,0.77579 -0.14694,1.15681 -0.16377,0.76204 -0.26664,1.53681 -0.26664,2.31625 v 9.07143 26.83631 5.29167 1.88989 c 0,0.25199 -0.008,0.50408 0,0.75594 0.0295,0.89134 0.33576,1.75501 0.37797,2.64584 0.0179,0.37759 0,0.75591 0,1.13392 v 3.02382 1.13392 0.37799 c 0,0.0632 -0.003,0.12639 -0.008,0.18944 -0.005,0.063 -0.01,0.12765 0.008,0.18851 0.0123,0.0436 0.0359,0.0835 0.0649,0.11826 0.0291,0.0348 0.0635,0.0646 0.0995,0.0921 0.072,0.055 0.15118,0.10182 0.21351,0.1676 0.0557,0.0587 0.096,0.13106 0.122,0.20769 0.026,0.0766 0.038,0.15757 0.0406,0.23845 0.005,0.16175 -0.0257,0.32231 -0.0579,0.48092 -0.0644,0.31721 -0.10468,0.63916 -0.10468,0.96283 v 3.02379 c 0,0.25667 -0.0264,0.51242 -0.0687,0.76557 -0.0212,0.12658 -0.0415,0.2542 -0.0383,0.38249 0.003,0.1283 0.0322,0.2596 0.10703,0.36385 0.0522,0.0727 0.12388,0.12863 0.19334,0.18506 0.0695,0.0564 0.13901,0.11592 0.18463,0.19292 0.0488,0.0824 0.0671,0.17991 0.069,0.27568 0.002,0.0958 -0.0111,0.19116 -0.0248,0.28597 -0.0273,0.18963 -0.0443,0.3807 -0.0443,0.57228 v 3.4018 c 0,0.12766 -0.0111,0.25499 -0.029,0.38139 -0.009,0.0632 -0.0175,0.12676 -0.0162,0.19058 0.001,0.0638 0.0132,0.12875 0.0452,0.18397 0.0453,0.0783 0.12536,0.12863 0.19981,0.17999 0.0372,0.0257 0.074,0.0525 0.1057,0.0847 0.0317,0.0322 0.0585,0.0703 0.0725,0.11326 0.0196,0.0602 0.014,0.1253 0.009,0.18837 -0.005,0.0631 -0.009,0.1263 -0.009,0.18959 v 0.75597 2.26785 c 0,0.57153 0.0268,1.14398 0.11727,1.7083 0.0905,0.56433 0.23126,1.12273 0.26071,1.6935 0.0195,0.37752 0,0.7559 0,1.13392 v 2.64584 7.9375 4.15774 1.51188 c 0,0.19264 -0.0202,0.38455 -0.0525,0.57446 -0.0162,0.0949 -0.0317,0.19071 -0.0292,0.287 0.002,0.0963 0.0247,0.1949 0.0817,0.27249 0.0536,0.0729 0.13299,0.12127 0.20624,0.1743 0.0366,0.0265 0.0723,0.0547 0.10279,0.0881 0.0305,0.0334 0.0557,0.0723 0.0689,0.11552 0.0185,0.0605 0.0132,0.12539 0.008,0.18845 -0.005,0.0631 -0.008,0.12627 -0.008,0.18953 v 0.37798 1.88987 6.42559 6.04764 1.5119 1.13393 c 0,0.126 -0.003,0.25203 0,0.37798 0.0143,0.52128 0.18485,1.02422 0.35954,1.51557 0.1747,0.49134 0.35702,0.98824 0.39641,1.50822 0.0286,0.377 0,0.75585 0,1.13393 v 2.26787 c 0,0.37802 -0.0189,0.75638 0,1.13393 0.0384,0.76606 0.28306,1.50673 0.37798,2.26785 0.0781,0.62629 0.0541,1.26107 0,1.88989 -0.0217,0.25192 -0.048,0.50768 0,0.75594 0.0379,0.19619 0.12096,0.38026 0.19988,0.56384 0.0789,0.18358 0.15513,0.37159 0.1781,0.57009 0.0145,0.12533 0.007,0.25204 0,0.37798 -0.0371,0.62989 -0.0816,1.26422 0,1.88989 0.0579,0.44367 0.17843,0.87637 0.27164,1.31398 0.0932,0.43761 0.15935,0.88758 0.10633,1.33186 -0.0465,0.38977 -0.18339,0.76379 -0.23964,1.15228 -0.0281,0.19424 -0.0358,0.39303 -0.001,0.58627 0.0343,0.19325 0.11225,0.38128 0.24113,0.5293 0.11719,0.1346 0.27324,0.23348 0.37798,0.37798 0.11301,0.15591 0.15688,0.35296 0.16171,0.54545 0.005,0.19249 -0.0259,0.38396 -0.0579,0.57384 -0.064,0.37975 -0.10383,0.76345 -0.10383,1.14856 v 6.04761 14.36309 12.47322 4.15775 c 0,0.32131 0.0343,0.64137 0.0893,0.95793 0.0275,0.15829 0.0539,0.31798 0.0497,0.47858 -0.004,0.1606 -0.0422,0.3252 -0.13905,0.45335 -0.0539,0.0713 -0.1238,0.12851 -0.19211,0.18612 -0.0683,0.0576 -0.1366,0.11731 -0.18587,0.19186 -0.0706,0.10683 -0.0975,0.23754 -0.10045,0.36556 -0.003,0.12802 0.0161,0.25544 0.036,0.38194 0.0397,0.25301 0.0644,0.5083 0.0644,0.76441 v 3.02382 8.31546 2.26787 0.75594 c 0,0.0634 0.004,0.12665 0.01,0.18973 0.006,0.0631 0.0119,0.12864 -0.01,0.18826 -0.0154,0.0427 -0.0446,0.0794 -0.0784,0.10976 -0.0338,0.0303 -0.0723,0.0548 -0.11064,0.0792 -0.0383,0.0244 -0.0768,0.0489 -0.11063,0.0792 -0.0338,0.0303 -0.063,0.067 -0.0784,0.10976 -0.0214,0.0596 -0.0154,0.12516 -0.01,0.18824 0.006,0.0631 0.01,0.12637 0.01,0.18972 v 0.75597 c 0,0.38005 0.0214,0.75969 0.0559,1.13816 0.0346,0.37847 0.0701,0.77116 -0.0559,1.12969 -0.0936,0.26608 -0.27321,0.49407 -0.37798,0.75594 -0.10707,0.26762 -0.13211,0.56233 -0.1139,0.85 0.0182,0.28766 0.0782,0.57082 0.13612,0.85318 0.058,0.28236 0.11422,0.56656 0.12488,0.85461 0.0107,0.28804 -0.0261,0.58237 -0.1471,0.84401 -0.0593,0.12834 -0.1378,0.24672 -0.20955,0.36856 -0.0718,0.12184 -0.13768,0.24937 -0.16843,0.38738 -0.055,0.24671 0.007,0.50329 0,0.75597 -0.007,0.26051 -0.0857,0.51328 -0.17007,0.75984 -0.0844,0.24656 -0.17543,0.49351 -0.2079,0.75207 -0.0471,0.37531 0,0.75566 0,1.13392 v 3.02379 7.18156 3.77976 c 0,0.3172 -0.0202,0.63397 -0.0529,0.94949 -0.0163,0.15775 -0.032,0.316 -0.0298,0.47459 0.002,0.15858 0.0233,0.31872 0.0826,0.46581 0.053,0.13135 0.1349,0.24855 0.20981,0.36876 0.0749,0.1202 0.14447,0.24754 0.16816,0.38718 0.0323,0.1903 -0.0232,0.38283 -0.0588,0.57255 -0.0178,0.0949 -0.0307,0.19137 -0.025,0.28772 0.006,0.0963 0.0307,0.19308 0.0838,0.27366 0.0493,0.0747 0.11997,0.1322 0.18942,0.1886 0.0695,0.0564 0.13996,0.11425 0.18856,0.18938 0.0482,0.0746 0.0724,0.16332 0.0763,0.25207 0.004,0.0887 -0.0118,0.17759 -0.0384,0.26232 -0.0533,0.16946 -0.14928,0.32167 -0.2284,0.48074 -0.0791,0.15906 -0.14302,0.33405 -0.12448,0.51074 0.009,0.0883 0.0399,0.17537 0.0943,0.24562 0.0544,0.0702 0.13329,0.12271 0.22072,0.1384 0.0623,0.0112 0.12619,0.004 0.18912,-0.003 0.0629,-0.006 0.1273,-0.012 0.18886,0.003 0.0832,0.0197 0.15529,0.076 0.20283,0.14704 0.0475,0.0711 0.0718,0.15602 0.0783,0.24126 0.013,0.17048 -0.0404,0.3385 -0.0964,0.50005 -0.056,0.16156 -0.11433,0.32306 -0.14694,0.4909 -0.0326,0.16783 -0.0378,0.33964 -0.0378,0.51062 v 6.04763 c 0,0.10255 -0.003,0.2056 -0.0227,0.30628 -0.0195,0.10068 -0.0545,0.19756 -0.088,0.29448 -0.0335,0.0969 -0.0655,0.1977 -0.0577,0.29996 0.004,0.0511 0.0184,0.1021 0.0469,0.14476 0.0285,0.0427 0.0716,0.0765 0.12149,0.0885 0.0314,0.008 0.0643,0.006 0.0962,0.002 0.0319,-0.005 0.0632,-0.0132 0.0948,-0.02 0.0316,-0.007 0.0637,-0.0121 0.096,-0.0106 0.0323,0.001 0.0648,0.0101 0.091,0.029 0.0275,0.0199 0.0465,0.0503 0.056,0.0829 0.009,0.0326 0.01,0.0674 0.005,0.10097 -0.01,0.0672 -0.0404,0.12932 -0.0608,0.1941 -0.0397,0.12624 -0.0405,0.26249 -0.0176,0.39282 0.0229,0.13034 0.0689,0.25556 0.12135,0.37706 0.1049,0.24301 0.23824,0.47981 0.27422,0.74203 0.0343,0.24987 0,0.50376 0,0.75597 v 1.51191 1.88986 0.75597 c 0,0.0352 -0.001,0.0706 -0.009,0.10499 -0.008,0.0344 -0.0214,0.067 -0.0344,0.0997 -0.013,0.0327 -0.0254,0.0673 -0.0218,0.10227 0.002,0.0175 0.008,0.0349 0.0193,0.0483 0.006,0.007 0.0126,0.0124 0.0205,0.0164 0.008,0.004 0.0166,0.006 0.0254,0.006 0.009,0 0.0176,-0.002 0.0254,-0.006 0.008,-0.004 0.0148,-0.01 0.0205,-0.0164 0.0113,-0.0135 0.0175,-0.0308 0.0193,-0.0483 0.004,-0.035 -0.009,-0.0696 -0.0218,-0.10227 -0.013,-0.0327 -0.0267,-0.0654 -0.0344,-0.0997 -0.008,-0.0344 -0.009,-0.0698 -0.009,-0.10499 v -0.75597"
       id="path1671"
       inkscape:connector-curvature="0"
       inkscape:path-effect="#path-effect1673"
       inkscape:original-d="m -150.8125,199.10416 c 1.159,11.59002 1.13393,7.54068 1.13393,12.09524 0,0.25199 -0.0356,0.5065 0,0.75595 0.10838,0.75868 0.36234,1.50164 0.37798,2.26786 0.11054,5.41653 0,10.83532 0,16.25298 0,0.25198 -0.0193,0.50471 0,0.75595 0.10673,1.38753 0.2624,2.77092 0.37797,4.15774 0.036,0.43159 -0.10099,1.58691 0,1.88988 0.0564,0.16904 0.29829,0.21861 0.37798,0.37797 0.0563,0.1127 0,0.25199 0,0.37798 0,0.25198 -0.0797,0.5169 0,0.75595 0.0563,0.16904 0.36025,0.20068 0.37798,0.37798 0.13783,1.37833 0,3.0619 0,4.53571 0,3.02381 0,6.04762 0,9.07143 0,8.94544 0,17.89088 0,26.83631 0,1.7639 0,3.52777 0,5.29167 0,0.62997 0,1.25992 0,1.88989 0,0.25196 -0.0278,0.50549 0,0.75594 0.0984,0.88546 0.26747,1.76181 0.37797,2.64584 0.0453,0.36224 0,0.76853 0,1.13392 0,1.00793 0,2.01589 0,3.02382 0,0.37798 0,0.75594 0,1.13392 0,0.126 0,0.25199 0,0.37799 0,0.12599 -0.0563,0.26527 0,0.37795 0.0797,0.15939 0.29829,0.21863 0.37798,0.37799 0.0541,0.10818 0,1.68796 0,1.88989 0,1.00793 0,2.01586 0,3.02379 0,0.19767 -0.0497,1.41253 0,1.51191 0.0797,0.15938 0.32163,0.20894 0.37797,0.37798 0.11953,0.35859 0,0.75594 0,1.13393 0,1.13392 0,2.26785 0,3.4018 0,0.25196 -0.0797,0.51689 0,0.75594 0.0563,0.16904 0.2983,0.2186 0.37798,0.37798 0.0563,0.11269 0,0.25199 0,0.37796 0,0.25199 0,0.50398 0,0.75597 0,0.75594 0,1.51191 0,2.26785 0,1.6919 0.0781,1.00256 0.37798,3.4018 0.0469,0.37504 0,0.75594 0,1.13392 0,0.88194 0,1.76387 0,2.64584 0,2.64583 0,5.29166 0,7.9375 0,1.38591 0,2.77182 0,4.15774 0,0.50395 0,1.00793 0,1.51188 0,0.37798 -0.0917,0.76724 0,1.13395 0.0432,0.17285 0.29829,0.2186 0.37797,0.37796 0.0564,0.11268 0,0.25199 0,0.37798 0,0.126 0,0.25199 0,0.37798 0,0.62995 0,1.25992 0,1.88987 0,2.14188 0,4.28374 0,6.42559 0,2.01589 0,4.03175 0,6.04764 0,0.50395 0,1.00793 0,1.5119 0,0.37796 0,0.75595 0,1.13393 0,0.12599 -0.0273,0.25498 0,0.37798 0.22538,1.0142 0.5522,2.00502 0.75595,3.02379 0.0741,0.37066 0,0.75597 0,1.13393 0,0.75597 0,1.51191 0,2.26787 0,0.37796 -0.0417,0.75827 0,1.13393 0.0846,0.76168 0.29335,1.50617 0.37798,2.26785 0.0696,0.62611 0,1.25992 0,1.88989 0,0.25199 -0.0611,0.51149 0,0.75594 0.0966,0.38653 0.28134,0.7474 0.37798,1.13393 0.0306,0.12223 0,0.25199 0,0.37798 0,0.62413 -0.0772,1.2723 0,1.88989 0.1105,0.884 0.28933,1.75935 0.37797,2.64584 0.0136,0.13602 -0.0802,2.02726 0,2.26785 0.0563,0.16904 0.2983,0.21859 0.37798,0.37798 0.0511,0.10226 0,2.10502 0,2.26785 0,2.01586 0,4.03175 0,6.04761 0,4.78771 0,9.5754 0,14.36309 0,4.15774 0,8.31548 0,12.47322 0,1.38592 0,2.77183 0,4.15775 0,0.33779 0.0602,1.76942 0,1.88986 -0.0797,0.15939 -0.33476,0.20513 -0.37798,0.37798 -0.12223,0.48893 0,1.00794 0,1.51191 0,1.00793 0,2.01586 0,3.02382 0,2.77183 0,5.54366 0,8.31546 0,0.75597 0,1.51191 0,2.26787 0,0.25199 0,0.50396 0,0.75594 0,0.126 0.0563,0.2653 0,0.37799 -0.0797,0.15936 -0.29829,0.2186 -0.37797,0.37798 -0.0564,0.11269 0,0.25196 0,0.37796 0,0.25199 0,0.50398 0,0.75597 0,0.0987 0.0633,2.07782 0,2.26785 -0.0891,0.26728 -0.33166,0.47805 -0.37798,0.75594 -0.18388,1.10328 0.18388,2.29851 0,3.4018 -0.0463,0.27789 -0.28889,0.48868 -0.37798,0.75594 -0.0797,0.23905 0.0494,0.50887 0,0.75597 -0.10187,0.50937 -0.27609,1.0025 -0.37797,1.51191 -0.068,0.34017 0,0.78618 0,1.13392 0,1.00793 0,2.01586 0,3.02379 0,2.39387 0,4.78772 0,7.18156 0,1.25992 0,2.51984 0,3.77976 0,0.3407 -0.0793,1.65198 0,1.88989 0.0891,0.26726 0.28888,0.48869 0.37797,0.75594 0.0867,0.25998 -0.1115,0.91091 0,1.13393 0.0797,0.15938 0.2983,0.21862 0.37798,0.37798 0.13054,0.26109 -0.13268,1.7572 0,1.88989 0.0891,0.0891 0.28889,-0.0891 0.37798,0 0.0171,0.0172 0,1.71164 0,1.88987 0,2.01588 0,4.03174 0,6.04763 0,0.0917 -0.0121,1.12176 0,1.13393 0.0891,0.0891 0.28888,-0.0891 0.37797,0 0.0891,0.0891 -0.0247,0.25442 0,0.37795 0.10188,0.50941 0.2761,1.00254 0.37798,1.51191 0.0494,0.2471 0,0.50398 0,0.75597 0,0.50395 0,1.00793 0,1.51191 0,0.62994 0,1.25992 0,1.88986 0,0.50549 0,0.25049 0,0.75597 0,0.12597 0.12599,0.37796 0,0.37796 -0.12599,0 0,-0.25199 0,-0.37796 0,-0.25199 0,-0.50398 0,-0.75597" />
    <path
       style="fill:none;stroke:#000000;stroke-width:0.26458332px;stroke-linecap:butt;stroke-linejoin:miter;stroke-opacity:1"
       d="m -131.15774,204.01785 2.26786,6.04762 c -0.0114,0.12565 -0.0114,0.25233 0,0.37798 0.0491,0.53956 0.30448,1.03577 0.55784,1.51467 0.25337,0.47891 0.51424,0.97089 0.57609,1.50914 0.0288,0.25065 0.0133,0.504 0,0.75595 -0.24564,4.65884 0.2849,9.32074 0.37798,13.98512 0.0528,2.64536 0,5.29162 0,7.9375 v 3.40179 c 0,0.50415 0.0442,1.00969 0,1.5119 -0.0563,0.64056 -0.30213,1.25134 -0.37798,1.88988 -0.0892,0.75118 0,1.5114 0,2.26786 v 0.75595 c 0,0.0634 0.004,0.12664 0.01,0.18973 0.006,0.0631 0.0119,0.12863 -0.01,0.18825 -0.0154,0.0427 -0.0446,0.0794 -0.0784,0.10976 -0.0338,0.0303 -0.0723,0.0549 -0.11064,0.0792 -0.0383,0.0244 -0.0768,0.0489 -0.11064,0.0792 -0.0338,0.0303 -0.063,0.067 -0.0784,0.10976 -0.0215,0.0596 -0.0154,0.12517 -0.01,0.18825 0.006,0.0631 0.01,0.12637 0.01,0.18973 v 0.75595 c 0,0.44999 0.0484,0.89819 0.12608,1.34143 0.0388,0.22162 0.0761,0.44524 0.0702,0.67015 -0.006,0.22492 -0.0596,0.45552 -0.19626,0.63426 -0.10835,0.14172 -0.26199,0.24242 -0.37797,0.37797 -0.18873,0.22057 -0.26485,0.51908 -0.27333,0.80925 -0.008,0.29017 0.0434,0.57843 0.0975,0.86364 0.10816,0.57042 0.1758,1.14831 0.1758,1.7289 v 4.53571 8.31547 3.77978 c 0,0.2524 -0.008,0.50472 -0.0206,0.7568 -0.0128,0.25208 -0.0263,0.50707 0.0206,0.75508 0.0742,0.39215 0.29968,0.74261 0.37797,1.13395 0.0497,0.24836 0.0382,0.50557 0,0.75595 -0.0794,0.52017 -0.2721,1.01818 -0.34777,1.53891 -0.0378,0.26036 -0.0458,0.52733 0.005,0.78549 0.0507,0.25817 0.16259,0.50784 0.34292,0.69941 0.12234,0.12997 0.27462,0.23244 0.37798,0.37796 0.0752,0.1059 0.12121,0.23091 0.14312,0.35894 0.0219,0.12804 0.0203,0.25925 0.006,0.38836 -0.0285,0.25822 -0.10705,0.50826 -0.14919,0.76461 -0.13765,0.8374 0.11818,1.68687 0.41819,2.4807 0.3,0.79384 0.65154,1.58681 0.71574,2.43301 0.01,0.12579 0.0126,0.25243 0,0.37795 -0.0194,0.19294 -0.0755,0.38056 -0.0986,0.5731 -0.0115,0.0963 -0.0147,0.19406 -7.9e-4,0.29001 0.0139,0.096 0.0454,0.19023 0.0993,0.27082 0.0993,0.14849 0.26522,0.23942 0.37797,0.37798 0.0826,0.10145 0.13402,0.22609 0.15861,0.35456 0.0246,0.12847 0.0231,0.2609 0.007,0.39076 -0.0313,0.25972 -0.11835,0.50938 -0.1661,0.76659 -0.11841,0.63778 0.009,1.29614 0.19519,1.91745 0.18641,0.62132 0.43263,1.22641 0.56077,1.86231 0.12719,0.6312 0.13823,1.2923 0.37797,1.88989 0.10494,0.26159 0.2513,0.50416 0.37798,0.75594 0.46721,0.92862 0.66079,2.0235 0.37797,3.02382 -0.0725,0.25625 -0.17531,0.50589 -0.20811,0.77015 -0.0164,0.13213 -0.0148,0.26757 0.0172,0.39683 0.0319,0.12925 0.0953,0.25228 0.19092,0.34493 0.065,0.063 0.14301,0.11059 0.21388,0.16684 0.0709,0.0563 0.1369,0.12482 0.1641,0.21112 0.0191,0.0604 0.0177,0.12533 0.0121,0.18845 -0.006,0.0631 -0.0152,0.12624 -0.0121,0.18953 0.007,0.14221 0.0776,0.27323 0.15636,0.39184 0.0788,0.11862 0.16828,0.23211 0.22162,0.36413 0.0715,0.17695 0.0727,0.37434 0.0546,0.56433 -0.0181,0.18998 -0.0545,0.37874 -0.0546,0.56959 -5e-5,0.32288 0.10355,0.63556 0.20191,0.9431 0.0983,0.30753 0.19358,0.62437 0.17606,0.94677 -0.0141,0.25987 -0.101,0.50998 -0.14051,0.76722 -0.0198,0.12862 -0.0276,0.26012 -0.008,0.38881 0.0193,0.1287 0.0667,0.25492 0.14883,0.35588 0.0564,0.0694 0.12743,0.12511 0.19587,0.18268 0.0684,0.0576 0.13589,0.11874 0.18211,0.1953 0.0497,0.0824 0.0724,0.17912 0.0768,0.27527 0.004,0.0962 -0.008,0.19229 -0.0256,0.287 -0.0343,0.18943 -0.0859,0.38229 -0.0513,0.57165 0.0207,0.11307 0.0717,0.21896 0.13597,0.31424 0.0643,0.0953 0.14189,0.18078 0.22067,0.26449 0.15755,0.16742 0.32614,0.33726 0.39931,0.5552 0.0406,0.12099 0.0492,0.25085 0.0415,0.37825 -0.008,0.1274 -0.0314,0.25321 -0.054,0.37883 -0.0226,0.12562 -0.0442,0.25194 -0.0477,0.37953 -0.004,0.12758 0.0116,0.25726 0.0602,0.3753 0.0696,0.16915 0.20883,0.3084 0.37798,0.37798 -0.19819,1.29628 0.0744,2.65942 0.75595,3.77976 0.14715,0.2419 0.31559,0.47976 0.37798,0.75594 0.0418,0.18493 0.0334,0.37723 0.0185,0.56624 -0.0148,0.18901 -0.0358,0.37889 -0.0185,0.56769 0.0367,0.40119 0.24154,0.76417 0.42708,1.12178 0.0928,0.1788 0.18207,0.36031 0.24512,0.55162 0.063,0.19132 0.0994,0.39365 0.0837,0.59447 -0.0152,0.19438 -0.0783,0.38183 -0.10586,0.57485 -0.0138,0.0965 -0.0185,0.19502 -0.004,0.29138 0.0147,0.0964 0.0497,0.19082 0.10967,0.2677 0.0551,0.0707 0.12892,0.12408 0.19899,0.18005 0.0701,0.056 0.13904,0.11764 0.17899,0.19793 0.0285,0.0572 0.0408,0.12137 0.0428,0.18519 0.002,0.0638 -0.006,0.12755 -0.0158,0.19061 -0.0201,0.12611 -0.0493,0.25439 -0.0271,0.38014 0.0248,0.14003 0.11027,0.26052 0.1925,0.37654 0.0822,0.11602 0.16576,0.23857 0.18547,0.3794 0.0175,0.12502 -0.0173,0.25295 0,0.37799 0.0195,0.14084 0.10277,0.26357 0.18488,0.37966 0.0821,0.11608 0.16766,0.23641 0.1931,0.3763 0.0228,0.12552 -0.005,0.25386 -0.0248,0.37992 -0.01,0.063 -0.0176,0.12667 -0.0158,0.19044 0.002,0.0638 0.0133,0.12795 0.0407,0.18558 0.0385,0.0811 0.10562,0.14474 0.17517,0.20147 0.0695,0.0567 0.14356,0.10911 0.2028,0.17652 0.0908,0.10336 0.14248,0.24036 0.14248,0.37797 0,0.13761 -0.0516,0.27461 -0.14248,0.37797 -0.2833,0.65594 -0.3273,1.4122 -0.12199,2.09657 0.20531,0.68437 0.65834,1.29152 1.25592,1.68319 0.0763,0.05 0.15511,0.0968 0.22409,0.15645 0.069,0.0596 0.12853,0.13395 0.15389,0.22153 0.0293,0.10114 0.0105,0.21054 -0.0249,0.3097 -0.0354,0.0992 -0.0869,0.19184 -0.12545,0.28982 -0.0386,0.098 -0.0643,0.20497 -0.0448,0.30845 0.01,0.0517 0.031,0.10174 0.0644,0.14238 0.0335,0.0407 0.0795,0.0715 0.13074,0.0836 0.0621,0.0146 0.12678,0.001 0.18971,-0.009 0.0315,-0.005 0.0632,-0.01 0.0951,-0.009 0.0319,2.2e-4 0.0641,0.005 0.0932,0.0181 0.0314,0.0139 0.0584,0.0369 0.0787,0.0645 0.0203,0.0276 0.034,0.0599 0.0416,0.0933 0.0151,0.0669 0.006,0.13725 -0.0127,0.20329 -0.0186,0.066 -0.0463,0.1291 -0.0691,0.19382 -0.0228,0.0647 -0.0407,0.1324 -0.0385,0.20097 0.002,0.0715 0.0265,0.14101 0.0605,0.20398 0.034,0.063 0.0776,0.12016 0.12155,0.17664 0.0439,0.0565 0.0885,0.11281 0.12471,0.17455 0.0362,0.0617 0.0639,0.12958 0.0712,0.20077 0.006,0.063 -0.003,0.12645 -0.01,0.18949 -0.006,0.063 -0.009,0.12808 0.01,0.1885 0.0136,0.0431 0.0382,0.0822 0.0678,0.11632 0.0296,0.0341 0.0643,0.0635 0.10026,0.0909 0.0719,0.0548 0.15028,0.10282 0.20993,0.17073 0.0648,0.0738 0.10392,0.1678 0.12104,0.26446 0.0171,0.0967 0.0131,0.19609 -0.001,0.29321 -0.0285,0.19424 -0.0974,0.38125 -0.1199,0.57628 -0.0315,0.27248 0.0295,0.54941 0.13428,0.80289 0.10481,0.25348 0.25233,0.48672 0.40138,0.71699 0.14905,0.23027 0.30099,0.46012 0.41585,0.70921 0.11486,0.24909 0.19205,0.52057 0.18242,0.7947 -0.004,0.12635 -0.0271,0.25448 0,0.37798 0.0305,0.13917 0.12036,0.25648 0.20364,0.37207 0.0416,0.0578 0.0823,0.11662 0.11436,0.18025 0.032,0.0636 0.0553,0.13254 0.06,0.20362 0.004,0.0633 -0.006,0.1265 -0.0126,0.18962 -0.006,0.0631 -0.008,0.1284 0.0126,0.18837 0.0147,0.0427 0.0404,0.081 0.0708,0.11424 0.0305,0.0333 0.0657,0.0618 0.10192,0.0888 0.0724,0.0539 0.15046,0.10327 0.20524,0.17498 0.0397,0.052 0.0654,0.114 0.0788,0.17808 0.0133,0.0641 0.0146,0.13029 0.008,0.19545 -0.0124,0.13032 -0.0541,0.25575 -0.0872,0.38241 -0.0163,0.0623 -0.0305,0.12551 -0.0336,0.18981 -0.003,0.0643 0.006,0.13015 0.0336,0.18817 0.0389,0.081 0.11121,0.14014 0.18286,0.19433 0.0717,0.0542 0.14668,0.108 0.19511,0.18366 0.0359,0.056 0.0553,0.12245 0.0553,0.18898 0,0.0665 -0.0194,0.13294 -0.0553,0.18898 l 0.37798,0.75596 c -0.008,0.12582 -0.008,0.25217 0,0.37799 0.0523,0.79982 0.42939,1.53586 0.75595,2.26785 0.34499,0.77331 0.64506,1.57645 1.13393,2.26785 0.0825,0.11662 0.17022,0.22993 0.24156,0.35366 0.0713,0.12374 0.12634,0.25983 0.13642,0.4023 0.009,0.12583 -0.0173,0.25301 0,0.37796 0.0133,0.0961 0.0536,0.18947 0.12031,0.2599 0.0667,0.0704 0.16066,0.11637 0.25766,0.11808 0.0643,0.001 0.12719,-0.0164 0.19083,-0.0254 0.0318,-0.005 0.0641,-0.007 0.0961,-0.004 0.032,0.003 0.0637,0.0122 0.0911,0.0291 0.0285,0.0177 0.0516,0.0436 0.0675,0.0732 0.0159,0.0296 0.0249,0.0626 0.0281,0.096 0.006,0.0668 -0.01,0.13385 -0.0311,0.19747 -0.0214,0.0636 -0.0484,0.12554 -0.0647,0.19066 -0.0164,0.0651 -0.0216,0.13513 3e-4,0.19859 0.0147,0.0427 0.0412,0.0806 0.0725,0.11312 0.0313,0.0325 0.0674,0.06 0.10414,0.0863 0.0735,0.0525 0.1523,0.10274 0.2013,0.17858 0.0349,0.054 0.0523,0.11804 0.0572,0.18216 0.005,0.0641 -0.002,0.1286 -0.0126,0.19201 -0.0213,0.12683 -0.0578,0.25387 -0.0446,0.3818 0.01,0.095 0.0471,0.1861 0.10106,0.26484 0.054,0.0787 0.12432,0.14546 0.20185,0.20119 0.15505,0.11145 0.3366,0.17865 0.51348,0.25059 0.17688,0.0719 0.35511,0.15226 0.49386,0.28345 0.0694,0.0656 0.12791,0.14362 0.16508,0.23157 0.0372,0.0879 0.0523,0.18607 0.0366,0.28024 -0.0109,0.0652 -0.0362,0.12735 -0.0459,0.19269 -0.005,0.0327 -0.006,0.0663 9.1e-4,0.0986 0.007,0.0323 0.0215,0.0635 0.045,0.0867 0.0234,0.0232 0.0546,0.0376 0.087,0.0441 0.0323,0.006 0.0658,0.005 0.0984,4e-4 0.0652,-0.01 0.12739,-0.0348 0.19261,-0.0445 0.0697,-0.0104 0.14167,-0.003 0.20894,0.0182 0.0673,0.0211 0.12997,0.0557 0.18592,0.0986 0.11191,0.0858 0.19566,0.20317 0.26589,0.32545 0.0702,0.12229 0.12862,0.25113 0.20022,0.37261 0.0716,0.12148 0.15821,0.23715 0.27296,0.31912 0.0757,0.0541 0.16202,0.0923 0.23639,0.14826 0.0372,0.028 0.0714,0.0605 0.0972,0.0993 0.0258,0.0387 0.0429,0.0839 0.0444,0.13045 0.002,0.0664 -0.0269,0.12927 -0.0417,0.19403 -0.007,0.0324 -0.0112,0.0661 -0.006,0.0988 0.006,0.0327 0.0212,0.0646 0.0473,0.0851 0.0253,0.0199 0.0583,0.0277 0.0905,0.0286 0.0322,8.7e-4 0.0641,-0.005 0.0958,-0.0102 0.0633,-0.0113 0.1274,-0.0184 0.19174,-0.0184 h 0.37797 c 0.0489,0 0.099,0.002 0.14427,0.0207 0.0453,0.0186 0.0834,0.0528 0.10911,0.0944 0.0257,0.0416 0.0395,0.0893 0.0546,0.1358 0.0151,0.0465 0.0336,0.0943 0.07,0.12705 0.0244,0.022 0.0556,0.0355 0.0878,0.0417 0.0322,0.006 0.0655,0.005 0.098,8e-4 0.065,-0.009 0.1273,-0.0324 0.19215,-0.0425 0.11638,-0.0182 0.23684,0.007 0.3432,0.0581 0.10636,0.0506 0.19975,0.12515 0.28449,0.20695 0.1695,0.16361 0.31031,0.36014 0.50624,0.49093 0.21765,0.14529 0.48364,0.19625 0.74317,0.22976 0.25954,0.0335 0.52472,0.0537 0.76873,0.14822 0.26305,0.1019 0.48931,0.28585 0.75595,0.37796 0.36086,0.12466 0.75613,0.0693 1.13318,0.009 0.377062,-0.0599 0.76988,-0.122 1.13468,-0.009 0.06352,0.0196 0.126125,0.0445 0.192191,0.0519 0.03303,0.004 0.06681,0.003 0.09906,-0.005 0.03225,-0.008 0.06298,-0.0236 0.08672,-0.0468 0.03498,-0.0343 0.0526,-0.0821 0.06769,-0.12871 0.01509,-0.0466 0.02939,-0.0941 0.05563,-0.13548 0.02624,-0.0413 0.06476,-0.0751 0.110177,-0.0935 0.04542,-0.0183 0.09551,-0.0203 0.144477,-0.0203 h 0.377976 c 0.06317,0 0.126305,0.003 0.189342,0.007 0.06304,0.004 0.127267,0.008 0.188634,-0.007 0.09084,-0.0222 0.166693,-0.0864 0.222497,-0.16147 0.0558,-0.075 0.09434,-0.16116 0.13523,-0.24526 0.04089,-0.0841 0.08544,-0.16814 0.15057,-0.23524 0.03256,-0.0335 0.07015,-0.0625 0.112214,-0.083 0.04206,-0.0204 0.0887,-0.0321 0.13544,-0.031 0.06587,0.001 0.128416,0.0277 0.193104,0.0402 0.03234,0.006 0.06575,0.009 0.09823,0.004 0.03249,-0.005 0.06414,-0.0197 0.08664,-0.0438 0.02229,-0.0238 0.03439,-0.056 0.03818,-0.0884 0.0038,-0.0324 -2.26e-4,-0.0653 -0.0069,-0.0972 -0.01331,-0.0639 -0.03731,-0.12737 -0.0313,-0.19237 0.0034,-0.0363 0.01611,-0.0714 0.03391,-0.1032 0.0178,-0.0318 0.04055,-0.0607 0.06501,-0.0877 0.04892,-0.0541 0.10441,-0.10214 0.151282,-0.15804 0.04687,-0.0559 0.08452,-0.12014 0.104971,-0.19016 0.02045,-0.07 0.0228,-0.14387 0.0228,-0.21682 v -0.37798 c 0,-0.0649 0.0084,-0.12935 0.02168,-0.19282 0.0067,-0.0317 0.01305,-0.0639 0.01197,-0.0963 -5.44e-4,-0.0162 -0.003,-0.0324 -0.0084,-0.0477 -0.0054,-0.0153 -0.01376,-0.0297 -0.02522,-0.0411 -0.01167,-0.0117 -0.02636,-0.0201 -0.04203,-0.0253 -0.01567,-0.005 -0.0323,-0.007 -0.0488,-0.007 -0.033,7.2e-4 -0.06506,0.0106 -0.0963,0.0213 -0.03123,0.0107 -0.06244,0.0223 -0.09513,0.0269 -0.03269,0.005 -0.06763,0.001 -0.09572,-0.016 -0.02878,-0.0178 -0.04765,-0.049 -0.05526,-0.0819 -0.0076,-0.0329 -0.0048,-0.0676 0.0025,-0.10057 0.01472,-0.066 0.04749,-0.12805 0.05273,-0.19548 0.0045,-0.0576 -0.01204,-0.11604 -0.04338,-0.16452 -0.03134,-0.0485 -0.07703,-0.0871 -0.128727,-0.11277 -0.103398,-0.0514 -0.226704,-0.0504 -0.338214,-0.0205 -0.22302,0.0599 -0.404352,0.22525 -0.623605,0.29775 -0.152999,0.0506 -0.318303,0.0536 -0.478294,0.0343 -0.159991,-0.0193 -0.316458,-0.0601 -0.473623,-0.0957 -0.157164,-0.0356 -0.316833,-0.0662 -0.47797,-0.0645 -0.161136,0.002 -0.325192,0.0375 -0.459995,0.12583 -0.150766,0.0987 -0.253403,0.25379 -0.359724,0.39931 -0.05316,0.0728 -0.108482,0.14442 -0.173103,0.20723 -0.06462,0.0628 -0.139115,0.11681 -0.223125,0.1494 -0.12019,0.0466 -0.25779,0.0466 -0.37798,0 0.009,0.20011 -0.0703,0.40242 -0.2119,0.54405 -0.14163,0.14163 -0.34394,0.22043 -0.54405,0.21191 -0.0635,-0.003 -0.12634,-0.0137 -0.1897,-0.0186 -0.0634,-0.005 -0.12856,-0.003 -0.18827,0.0186 -0.0687,0.025 -0.12626,0.0757 -0.16814,0.13564 -0.0419,0.06 -0.0691,0.12905 -0.0893,0.19936 -0.0404,0.14062 -0.0548,0.29028 -0.12056,0.42095 -0.0626,0.12433 -0.1679,0.22261 -0.28291,0.30104 -0.115,0.0784 -0.24085,0.13929 -0.36229,0.20732 -0.12144,0.068 -0.24036,0.14477 -0.3332,0.24849 -0.0928,0.10373 -0.15803,0.23789 -0.15553,0.37707 0.001,0.064 0.0163,0.12679 0.0236,0.19036 0.007,0.0636 0.006,0.13084 -0.0236,0.18762 -0.0174,0.0335 -0.0439,0.0617 -0.0747,0.0835 -0.0308,0.0217 -0.0658,0.0371 -0.10199,0.0477 -0.0724,0.0212 -0.14863,0.0237 -0.22383,0.0292 -0.0752,0.006 -0.1519,0.0148 -0.21957,0.0481 -0.0338,0.0166 -0.065,0.0393 -0.0893,0.0681 -0.0243,0.0289 -0.0414,0.0641 -0.0465,0.10144 -0.004,0.0327 2.5e-4,0.066 0.008,0.098 0.008,0.0321 0.0185,0.0633 0.0264,0.0953 0.008,0.032 0.0128,0.0653 0.009,0.098 -0.004,0.0327 -0.0181,0.0651 -0.0431,0.0866 -0.0247,0.0213 -0.0582,0.0303 -0.0908,0.0306 -0.0326,3e-4 -0.0647,-0.007 -0.0961,-0.0163 -0.0314,-0.009 -0.0626,-0.019 -0.0949,-0.0236 -0.0323,-0.005 -0.0662,-0.004 -0.0962,0.009 -0.0333,0.0143 -0.0596,0.0427 -0.0745,0.0757 -0.0149,0.033 -0.0188,0.0704 -0.0145,0.10637 0.009,0.0719 0.048,0.13612 0.089,0.19589 0.0435,0.0635 0.0898,0.1252 0.12915,0.19136 0.0393,0.0662 0.0718,0.13754 0.0847,0.21342 0.013,0.0759 0.005,0.15686 -0.0318,0.22437 -0.0185,0.0337 -0.0441,0.0637 -0.0754,0.0861 -0.0313,0.0224 -0.0683,0.037 -0.10664,0.0407 -0.0651,0.006 -0.12863,-0.0185 -0.19259,-0.0323 -0.032,-0.007 -0.0649,-0.011 -0.0974,-0.007 -0.0325,0.004 -0.0646,0.0165 -0.088,0.0394 -0.0234,0.023 -0.0365,0.055 -0.0409,0.0875 -0.004,0.0325 -5.2e-4,0.0656 0.006,0.0977 0.0136,0.0642 0.0389,0.12736 0.0346,0.19279 -0.003,0.0462 -0.0211,0.0907 -0.0473,0.12887 -0.0263,0.0382 -0.0605,0.0703 -0.0974,0.0982 -0.074,0.0558 -0.15921,0.0952 -0.23321,0.1509 -0.11468,0.0864 -0.19797,0.20907 -0.25702,0.33992 -0.059,0.13086 -0.0955,0.27059 -0.13067,0.40977 -0.0352,0.13918 -0.0696,0.27924 -0.12511,0.41166 -0.0554,0.13242 -0.13336,0.25806 -0.24315,0.35056 -0.0698,0.0588 -0.15084,0.10295 -0.22273,0.15925 -0.0359,0.0281 -0.0697,0.0595 -0.0973,0.0959 -0.0275,0.0364 -0.0487,0.0781 -0.058,0.12283 -0.0141,0.0682 1.9e-4,0.1393 0.0235,0.2049 0.0233,0.0656 0.0555,0.12775 0.079,0.1933 0.0235,0.0655 0.0381,0.13656 0.0245,0.20483 -0.007,0.0341 -0.0208,0.0671 -0.0425,0.0943 -0.0216,0.0273 -0.0511,0.0486 -0.0845,0.0586 -0.0311,0.009 -0.0645,0.008 -0.0966,0.003 -0.0321,-0.005 -0.0633,-0.0145 -0.0948,-0.0223 -0.0315,-0.008 -0.0638,-0.014 -0.0963,-0.0126 -0.0324,0.001 -0.0653,0.0109 -0.0903,0.0316 -0.0255,0.0212 -0.0411,0.0528 -0.0471,0.0854 -0.006,0.0326 -0.003,0.0663 0.004,0.0988 0.0133,0.065 0.0414,0.12744 0.0435,0.19375 0.002,0.047 -0.0103,0.0939 -0.0313,0.13596 -0.0209,0.0421 -0.0508,0.0793 -0.0852,0.11131 -0.0688,0.0639 -0.15464,0.10621 -0.24001,0.14548 -0.0854,0.0393 -0.17258,0.077 -0.24731,0.13395 -0.0374,0.0285 -0.0714,0.0617 -0.0982,0.1003 -0.0268,0.0386 -0.0464,0.0826 -0.0539,0.12895 -0.0102,0.0627 0.001,0.12665 0.01,0.18965 0.008,0.063 0.0132,0.12911 -0.01,0.18833 -0.0165,0.0423 -0.0463,0.0784 -0.0806,0.10826 -0.0342,0.0299 -0.0729,0.0541 -0.1112,0.0785 -0.0383,0.0244 -0.0767,0.0492 -0.1101,0.08 -0.0334,0.0308 -0.0619,0.0681 -0.0761,0.11125 -0.0199,0.0604 -0.0105,0.12609 -6.1e-4,0.18893 0.01,0.0628 0.0198,0.12837 6.1e-4,0.18903 -0.0136,0.0433 -0.0414,0.0811 -0.0743,0.11234 -0.0329,0.0313 -0.0708,0.0567 -0.10891,0.0813 -0.0381,0.0247 -0.0767,0.0489 -0.11121,0.0783 -0.0345,0.0294 -0.0652,0.0645 -0.0836,0.10599 -0.0271,0.0612 -0.0255,0.13177 -0.0109,0.1971 0.0146,0.0653 0.0413,0.1272 0.0635,0.19035 0.0222,0.0631 0.0402,0.12934 0.0361,0.19615 -0.002,0.0334 -0.01,0.0667 -0.0244,0.0967 -0.0147,0.0301 -0.0366,0.0569 -0.0643,0.0756 -0.0268,0.0181 -0.0583,0.0282 -0.0903,0.0324 -0.032,0.004 -0.0645,0.002 -0.0965,-0.002 -0.064,-0.009 -0.12662,-0.0274 -0.1911,-0.0305 -0.093,-0.004 -0.1863,0.0251 -0.2638,0.0767 -0.0775,0.0516 -0.13963,0.12466 -0.18429,0.20639 -0.0893,0.16345 -0.10849,0.35598 -0.10663,0.54224 0.002,0.18626 0.0229,0.37285 0.007,0.5584 -0.008,0.0928 -0.0258,0.18517 -0.059,0.27218 -0.0332,0.087 -0.0824,0.16865 -0.14877,0.23397 -0.0646,0.0636 -0.14366,0.11022 -0.2152,0.16591 -0.0358,0.0279 -0.0699,0.0582 -0.0986,0.0933 -0.0287,0.0351 -0.0519,0.0752 -0.0642,0.1188 -0.0171,0.061 -0.0122,0.12573 -0.005,0.18869 0.007,0.063 0.0154,0.12674 0.005,0.18927 -0.0145,0.0907 -0.0678,0.17178 -0.13447,0.235 -0.0667,0.0632 -0.14654,0.1106 -0.22653,0.15582 -0.08,0.0452 -0.16136,0.0892 -0.23284,0.14691 -0.0715,0.0577 -0.13341,0.13095 -0.16212,0.21824 -0.0199,0.0603 -0.0231,0.12501 -0.0196,0.18844 0.003,0.0634 0.0135,0.12631 0.0196,0.18954 0.0335,0.34607 -0.0518,0.69601 -0.1967,1.01207 -0.1449,0.31606 -0.34765,0.60191 -0.55925,0.8778 -0.17465,0.22771 -0.35689,0.45113 -0.50092,0.69934 -0.14404,0.2482 -0.24954,0.52564 -0.25503,0.81256 -0.002,0.12608 0.0144,0.25272 0,0.37799 -0.023,0.19986 -0.12328,0.38106 -0.214,0.56062 -0.0907,0.17956 -0.17561,0.37246 -0.16398,0.5733 0.004,0.0637 0.0171,0.12649 0.0229,0.19005 0.006,0.0636 0.003,0.12977 -0.0229,0.18794 -0.0186,0.0412 -0.0484,0.0765 -0.0821,0.10664 -0.0337,0.0301 -0.0713,0.0555 -0.10864,0.0809 -0.0374,0.0254 -0.0748,0.0511 -0.10793,0.0818 -0.0331,0.0307 -0.0621,0.0668 -0.0793,0.10862 -0.0242,0.0588 -0.0237,0.12482 -0.017,0.18809 0.007,0.0633 0.019,0.12631 0.017,0.1899 -0.002,0.0712 -0.0223,0.14109 -0.0518,0.20598 -0.0295,0.0649 -0.0681,0.12518 -0.10874,0.18373 -0.0813,0.1171 -0.17246,0.23099 -0.21745,0.36623 -0.0342,0.10274 -0.0398,0.21275 -0.038,0.32101 0.002,0.10826 0.0106,0.2166 0.004,0.32469 -0.006,0.10808 -0.0293,0.21756 -0.0858,0.30989 -0.0283,0.0462 -0.0649,0.0875 -0.10891,0.11903 -0.044,0.0315 -0.0956,0.053 -0.14935,0.0593 -0.0632,0.007 -0.12682,-0.006 -0.18995,-0.0142 -0.0631,-0.008 -0.12985,-0.0117 -0.18802,0.0142 -0.0459,0.0204 -0.083,0.0581 -0.10727,0.10213 -0.0242,0.044 -0.0361,0.0941 -0.0391,0.1443 -0.006,0.10032 0.0219,0.19933 0.0509,0.29553 0.0291,0.0962 0.0592,0.19242 0.076,0.29151 0.0168,0.0991 0.0194,0.19995 0.0194,0.30045 v 0.37796 c 0,0.0641 0.007,0.12808 0.017,0.19136 0.005,0.0317 0.0103,0.0636 0.01,0.0956 -7.9e-4,0.0321 -0.008,0.0649 -0.0266,0.091 -0.0195,0.0274 -0.0505,0.0455 -0.0832,0.0534 -0.0327,0.008 -0.0671,0.006 -0.10025,2.1e-4 -0.0662,-0.0124 -0.12806,-0.043 -0.19455,-0.0536 -0.0933,-0.0149 -0.1913,0.0117 -0.26853,0.0662 -0.0772,0.0545 -0.13408,0.13548 -0.1661,0.22442 -0.032,0.0889 -0.04,0.18554 -0.0304,0.27958 0.01,0.094 0.0364,0.18573 0.0721,0.27329 0.0713,0.17511 0.17717,0.33371 0.26227,0.50254 0.0851,0.16882 0.1504,0.35582 0.13068,0.54385 -0.012,0.1146 -0.0554,0.22436 -0.11431,0.32339 -0.0589,0.099 -0.13318,0.18806 -0.21087,0.27316 -0.15538,0.17021 -0.32874,0.33072 -0.43077,0.53737 -0.0706,0.14308 -0.10364,0.30266 -0.11205,0.46201 -0.008,0.15934 0.007,0.31903 0.0295,0.47702 0.0448,0.31597 0.11737,0.63361 0.0826,0.95084 -0.0436,0.39725 -0.25073,0.75511 -0.37798,1.13395 -0.284,0.8455 -0.16304,1.76893 0,2.64583 0.0117,0.0628 0.0236,0.12581 0.0266,0.18962 0.003,0.0638 -0.003,0.12891 -0.0266,0.18834 -0.0331,0.0838 -0.0981,0.15105 -0.16764,0.20833 -0.0696,0.0573 -0.14538,0.10718 -0.21033,0.16965 -0.0936,0.0901 -0.16223,0.20438 -0.20648,0.32652 -0.0442,0.12214 -0.0648,0.25208 -0.0693,0.38191 -0.009,0.25965 0.0434,0.5172 0.098,0.77121 0.10918,0.50803 0.17777,1.02455 0.17777,1.54418 v 3.02379 c 0,0.18969 0.009,0.37924 0.0229,0.56839 0.0142,0.18916 0.0289,0.38309 -0.0229,0.56556 -0.0386,0.13595 -0.1135,0.25829 -0.18787,0.37847 -0.0744,0.12017 -0.14993,0.24198 -0.19011,0.37747 -0.0461,0.15531 -0.0432,0.32152 -0.0189,0.48169 0.0243,0.16016 0.0693,0.31631 0.10695,0.47388 0.0376,0.15756 0.068,0.31857 0.0621,0.48046 -0.006,0.16189 -0.0506,0.3261 -0.15014,0.45387 -0.0549,0.0705 -0.12456,0.12775 -0.19256,0.18568 -0.068,0.0579 -0.13577,0.118 -0.18542,0.19227 -0.0538,0.0805 -0.0843,0.17513 -0.0968,0.27114 -0.0125,0.096 -0.008,0.19359 0.005,0.28959 0.0252,0.19199 0.0813,0.37985 0.0919,0.5732 0.0143,0.26083 -0.0547,0.519 -0.13919,0.76618 -0.0845,0.24717 -0.18545,0.49001 -0.23878,0.74573 -0.0773,0.37077 -0.055,0.75421 -0.034,1.13237 0.021,0.37816 0.034,0.75676 0.034,1.1355 v 0.75594 c 0,0.0632 0.003,0.12639 0.007,0.18944 0.005,0.063 0.009,0.12758 -0.007,0.18855 -0.012,0.0437 -0.035,0.084 -0.0637,0.11914 -0.0286,0.0352 -0.0627,0.0655 -0.0986,0.0934 -0.0716,0.0557 -0.15086,0.10206 -0.21576,0.16543 -0.0697,0.068 -0.12062,0.15396 -0.15348,0.24562 -0.0329,0.0917 -0.0481,0.18906 -0.0514,0.28638 -0.007,0.19464 0.0323,0.38772 0.0728,0.5782 0.0811,0.38096 0.13207,0.76818 0.13207,1.15768 v 4.5357 13.22917 21.16666 6.80358 1.88989 c 0,0.19019 0.0115,0.38014 0.0301,0.56942 0.009,0.0946 0.0183,0.18954 0.017,0.28462 -0.001,0.0951 -0.0132,0.19102 -0.0471,0.27988 -0.0511,0.134 -0.14857,0.24396 -0.23197,0.36063 -0.0417,0.0583 -0.0804,0.11934 -0.10784,0.18559 -0.0274,0.0662 -0.0434,0.13821 -0.0382,0.20973 0.005,0.0715 0.031,0.13975 0.0602,0.20521 0.0291,0.0655 0.0619,0.12967 0.0824,0.19833 0.0205,0.0687 0.028,0.14343 0.006,0.2116 -0.011,0.0341 -0.0295,0.066 -0.055,0.0911 -0.0255,0.0251 -0.0582,0.0433 -0.0935,0.0497 -0.0325,0.006 -0.066,0.002 -0.0981,-0.006 -0.0321,-0.008 -0.0633,-0.0186 -0.0953,-0.0269 -0.0319,-0.008 -0.0651,-0.0138 -0.0979,-0.0101 -0.0328,0.004 -0.0654,0.0176 -0.0867,0.0428 -0.0208,0.0246 -0.0292,0.0578 -0.0301,0.09 -9.3e-4,0.0322 0.005,0.0643 0.0108,0.0959 0.0119,0.0634 0.0194,0.12756 0.0194,0.19204 v 0.37798 0.37799 c 0,0.065 0.009,0.12969 0.0227,0.19322 0.007,0.0318 0.0137,0.064 0.0125,0.0965 -5.9e-4,0.0163 -0.003,0.0325 -0.009,0.0478 -0.006,0.0152 -0.0144,0.0295 -0.0264,0.0405 -0.0122,0.0113 -0.0275,0.0191 -0.0436,0.0233 -0.0161,0.004 -0.033,0.005 -0.0496,0.004 -0.0332,-0.003 -0.0647,-0.015 -0.0958,-0.027 -0.0311,-0.012 -0.0627,-0.024 -0.0958,-0.027 -0.0166,-0.001 -0.0335,-6.1e-4 -0.0496,0.004 -0.0161,0.004 -0.0314,0.012 -0.0436,0.0233 -0.0119,0.011 -0.0207,0.0253 -0.0264,0.0405 -0.006,0.0152 -0.008,0.0315 -0.009,0.0478 -0.001,0.0325 0.006,0.0647 0.0125,0.0965 0.014,0.0635 0.0228,0.12816 0.0228,0.19321 v 1.13392 2.26788 c 0,0.25546 0.0227,0.51024 0.0592,0.76308 0.0182,0.12642 0.0358,0.25361 0.0331,0.38132 -0.003,0.1277 -0.0271,0.25772 -0.0923,0.36751 -0.0914,0.15378 -0.25162,0.25129 -0.37797,0.37796 -0.24142,0.24203 -0.35476,0.59508 -0.34054,0.93664 0.0142,0.34156 0.14757,0.67107 0.34054,0.95325 0.0935,0.13678 0.20093,0.26363 0.2951,0.39998 0.0942,0.13634 0.17598,0.28473 0.21004,0.44689 0.017,0.0811 0.0218,0.16508 0.0101,0.24709 -0.0118,0.082 -0.0403,0.16202 -0.0866,0.23075 -0.0463,0.0687 -0.11051,0.12587 -0.18589,0.16024 -0.0754,0.0344 -0.16191,0.0453 -0.2427,0.027 -0.067,-0.0152 -0.12857,-0.0496 -0.19598,-0.0627 -0.0337,-0.007 -0.069,-0.008 -0.102,0.002 -0.033,0.01 -0.0634,0.0306 -0.08,0.0607 -0.016,0.0288 -0.0182,0.0636 -0.0133,0.0962 0.005,0.0326 0.0165,0.0637 0.0268,0.095 0.0104,0.0313 0.0197,0.0635 0.0198,0.0965 8e-5,0.0165 -0.002,0.0331 -0.008,0.0486 -0.005,0.0156 -0.014,0.0301 -0.0258,0.0417 -0.0116,0.0113 -0.026,0.0196 -0.0413,0.0249 -0.0153,0.005 -0.0315,0.008 -0.0477,0.008 -0.0324,0.001 -0.0645,-0.005 -0.0963,-0.0118 -0.0635,-0.0132 -0.12792,-0.0214 -0.19273,-0.0214 h -2.26786 -0.37798 c -0.0632,0 -0.1263,0.002 -0.18933,0.007 -0.063,0.004 -0.12724,0.008 -0.18864,-0.007 -0.0888,-0.0214 -0.16356,-0.0824 -0.22214,-0.15256 -0.0586,-0.0702 -0.10383,-0.15024 -0.15584,-0.22539 -0.10196,-0.14731 -0.23068,-0.27603 -0.37798,-0.37799"
       id="path1675"
       inkscape:connector-curvature="0"
       inkscape:path-effect="#path-effect1677"
       inkscape:original-d="m -131.15774,204.01785 c 0.75596,2.01588 1.51191,4.03175 2.26786,6.04762 0,0.126 -0.0398,0.25845 0,0.37798 0.34041,1.02124 0.82461,1.99273 1.13393,3.02381 0.0724,0.24135 -0.006,0.50405 0,0.75595 0.11953,4.66188 0.27437,9.32286 0.37798,13.98512 0.0587,2.64131 0,5.29447 0,7.9375 0,1.13393 0,2.26786 0,3.40179 0,0.47685 0.0658,1.05113 0,1.5119 -0.0909,0.63598 -0.31406,1.25063 -0.37798,1.88988 -0.0752,0.7522 0,1.51191 0,2.26786 0,0.25198 0,0.50397 0,0.75595 0,0.12599 0.0563,0.26529 0,0.37798 -0.0797,0.15937 -0.29829,0.21861 -0.37798,0.37797 -0.0563,0.11269 0,0.25199 0,0.37798 0,0.25198 0,0.50397 0,0.75595 0,0.39983 0.0649,2.45111 0,2.64584 -0.0563,0.16903 -0.36024,0.20068 -0.37797,0.37797 -0.11283,1.1283 0,2.26786 0,3.40179 0,1.5119 0,3.02381 0,4.53571 0,2.77183 0,5.54365 0,8.31547 0,1.25992 0,2.51986 0,3.77978 0,0.50395 -0.0713,1.01298 0,1.51188 0.0563,0.39444 0.28134,0.74742 0.37797,1.13395 0.0611,0.24445 0,0.50396 0,0.75595 0,0.34112 -0.0701,2.74346 0,3.02381 0.0432,0.17285 0.32163,0.20894 0.37798,0.37796 0.15937,0.47813 -0.0766,1.0138 0,1.51191 2.01587,13.10317 -0.11591,1.16416 1.13393,4.91371 0.0398,0.11951 0,0.25196 0,0.37795 0,0.37799 -0.0917,0.76724 0,1.13393 0.0432,0.17288 0.32163,0.20894 0.37797,0.37798 0.15937,0.47811 -0.0828,1.01481 0,1.51191 0.21124,1.26738 0.50397,2.51984 0.75596,3.77976 0.12599,0.62997 0.20148,1.27217 0.37797,1.88989 0.0774,0.27088 0.32273,0.47969 0.37798,0.75594 0.19921,0.99605 0.2658,2.01425 0.37797,3.02382 0.034,0.30599 -0.0801,1.35168 0,1.51191 0.0797,0.15936 0.2983,0.2186 0.37798,0.37796 0.0564,0.11271 -0.0398,0.25847 0,0.37798 0.0891,0.26728 0.32273,0.47969 0.37798,0.75597 0.0741,0.37063 -0.0469,0.75885 0,1.13392 0.0797,0.63746 0.28712,1.25389 0.37797,1.88987 0.0713,0.4989 -0.15936,1.0338 0,1.51191 0.0564,0.16904 0.32164,0.20894 0.37798,0.37798 0.11339,0.34017 -0.11339,0.79375 0,1.13392 0.91261,2.73783 -0.10897,-0.59592 0.75595,1.13393 0.11878,0.23757 -0.11878,1.27434 0,1.51191 0.0797,0.15936 0.25199,0.25199 0.37798,0.37798 0.25198,1.25992 0.44432,2.53326 0.75595,3.77976 0.0683,0.27331 0.32273,0.47969 0.37798,0.75594 0.0741,0.37066 -0.082,0.76496 0,1.13393 0.17286,0.77787 0.58309,1.49 0.75595,2.26787 0.082,0.36896 -0.0917,0.76724 0,1.13393 0.0432,0.17285 0.32163,0.20894 0.37798,0.37798 0.0797,0.23905 -0.0611,0.51149 0,0.75594 0.0683,0.27332 0.28888,0.48869 0.37797,0.75594 0.0398,0.11954 -0.0398,0.25847 0,0.37799 0.0891,0.26728 0.30965,0.48265 0.37798,0.75596 0.0611,0.24445 -0.0797,0.51689 0,0.75594 0.0563,0.16905 0.32163,0.20895 0.37797,0.37799 0.0797,0.23905 0,0.50395 0,0.75594 0.37798,1.25992 0.68441,2.54357 1.13393,3.77976 0.0609,0.16745 0.33476,0.20513 0.37798,0.37798 0.0917,0.36669 -0.11953,0.77536 0,1.13393 0.0398,0.11953 0.32163,-0.11269 0.37797,0 0.1127,0.22537 -0.0611,0.51149 0,0.75596 0.0683,0.27332 0.28889,0.48866 0.37798,0.75594 0.0398,0.11954 -0.0563,0.2653 0,0.37799 0.0797,0.15936 0.33476,0.2051 0.37798,0.37796 0.0917,0.36671 -0.0995,0.76927 0,1.13395 0.28324,1.03854 0.79351,2.00255 1.13393,3.02379 0.0398,0.11954 -0.0399,0.25844 0,0.37798 0.0891,0.26728 0.28888,0.48869 0.37797,0.75594 0.0398,0.11954 -0.0563,0.2653 0,0.37799 0.0797,0.15938 0.32163,0.20894 0.37798,0.37798 0.0797,0.23905 0,0.50395 0,0.75594 0,0.126 -0.0563,0.2653 0,0.37798 0.0797,0.15936 0.29829,0.2186 0.37797,0.37799 0.0563,0.11268 -0.0398,0.25844 0,0.37796 0.126,0.25198 0.25199,0.50397 0.37798,0.75596 0,0.126 -0.0346,0.25683 0,0.37799 0.21891,0.76618 0.44947,1.5323 0.75595,2.26785 0.32507,0.78015 0.75596,1.5119 1.13393,2.26785 0.12599,0.25199 0.28889,0.48868 0.37798,0.75596 0.0398,0.11952 -0.0563,0.26527 0,0.37796 0.0797,0.15939 0.2186,0.29829 0.37797,0.37798 0.11269,0.0564 0.32164,-0.11268 0.37798,0 0.11269,0.22538 -0.0797,0.51689 0,0.75595 0.0563,0.16904 0.29829,0.21862 0.37798,0.37798 0.11269,0.22537 -0.15742,0.5592 0,0.75597 0.44523,0.55652 1.06667,0.95535 1.5119,1.51188 0.0787,0.0984 -0.0891,0.2889 0,0.37798 0.0891,0.0891 0.27718,-0.0756 0.37798,0 0.42763,0.32073 0.75595,0.75597 1.13393,1.13393 0.12599,0.12599 0.29829,0.21862 0.37797,0.37798 0.0563,0.11269 -0.0891,0.2889 0,0.37798 0.0891,0.0891 0.25199,0 0.37798,0 0.12599,0 0.25198,0 0.37797,0 1.00794,0 -0.12599,-0.12599 0.37798,0.37796 0.0891,0.0891 0.26529,-0.0563 0.37798,0 0.40631,0.20318 0.71638,0.57703 1.13393,0.75597 0.47747,0.20463 1.01908,0.2137 1.5119,0.37798 0.26727,0.0891 0.48868,0.28888 0.75595,0.37796 0.22538,0.0751 1.901651,0 2.26786,0 0.125992,0 0.288886,0.0891 0.377976,0 0.503968,-0.50395 -0.629962,-0.37796 0.377976,-0.37796 0.125992,0 0.251984,0 0.377976,0 0.125992,0 0.265284,0.0563 0.377976,0 0.318738,-0.15938 0.437216,-0.59658 0.755951,-0.75596 0.112692,-0.0563 0.288888,0.0891 0.377979,0 0.08909,-0.0891 -0.05635,-0.26528 0,-0.37799 0.467063,-0.93411 0.377976,0.13049 0.377976,-0.75594 0,-0.12599 0,-0.25199 0,-0.37798 0,-0.126 0.08909,-0.28887 0,-0.37796 -0.08909,-0.0891 -0.288888,0.0891 -0.377976,0 -0.08909,-0.0891 0.08909,-0.2889 0,-0.37798 -0.01217,-0.0122 -1.04226,0 -1.13393,0 -0.262898,0 -1.753193,-0.0684 -1.889882,0 -0.318736,0.15935 -0.437213,0.59658 -0.755952,0.75594 -0.11269,0.0563 -0.25198,0 -0.37798,0 -0.25198,0.25199 -0.45944,0.55829 -0.75595,0.75596 -0.10483,0.0699 -0.28888,-0.0891 -0.37797,0 -0.19922,0.19921 -0.22171,0.52155 -0.37798,0.75595 -0.29075,0.43613 -0.84318,0.69781 -1.13393,1.13392 -0.0699,0.10483 0.0563,0.2653 0,0.37798 -0.78652,1.57306 0.0261,-0.40407 -0.75595,0.37799 -0.0891,0.0891 0.0891,0.28887 0,0.37796 -0.0891,0.0891 -0.28889,-0.0891 -0.37798,0 -0.0891,0.0891 0,0.25198 0,0.37798 0,0.25199 0.11269,0.53057 0,0.75597 -0.0563,0.11268 -0.28888,-0.0891 -0.37797,0 -0.0891,0.0891 0.0563,0.26527 0,0.37795 -0.0797,0.15939 -0.28631,0.22519 -0.37798,0.37799 -0.28989,0.48315 -0.46606,1.02875 -0.75595,1.51191 -0.0917,0.15279 -0.29829,0.21859 -0.37798,0.37798 -0.11269,0.22537 0.17818,0.57777 0,0.75594 -0.0891,0.0891 -0.28889,-0.0891 -0.37797,0 -0.0891,0.0891 0.0563,0.2653 0,0.37798 -0.15937,0.31872 -0.59659,0.4372 -0.75596,0.75595 -0.0563,0.11268 0.0564,0.26529 0,0.37798 -0.0797,0.15936 -0.29829,0.2186 -0.37797,0.37798 -0.0564,0.11269 0.0563,0.26527 0,0.37796 -0.0797,0.15939 -0.29829,0.21863 -0.37798,0.37798 -0.11269,0.22538 0.17818,0.57777 0,0.75595 -0.0891,0.0891 -0.31315,-0.10803 -0.37798,0 -0.34907,0.58181 -0.45252,1.28304 -0.75595,1.88989 -0.0797,0.15936 -0.29829,0.2186 -0.37797,0.37798 -0.0563,0.11269 0.0563,0.26527 0,0.37796 -0.15937,0.31874 -0.59659,0.43722 -0.75596,0.75597 -0.0563,0.11268 0.0399,0.25844 0,0.37798 -0.21455,0.64365 -0.48039,1.26987 -0.75595,1.88987 -0.22884,0.5149 -0.54669,0.98874 -0.75595,1.5119 -0.0468,0.11698 0.0306,0.25575 0,0.37799 -0.0966,0.38653 -0.28134,0.74739 -0.37798,1.13392 -0.0306,0.12224 0.0564,0.26527 0,0.37799 -0.0797,0.15935 -0.29829,0.2186 -0.37797,0.37795 -0.0564,0.11269 0.0398,0.25845 0,0.37799 -0.0891,0.26728 -0.27335,0.49437 -0.37798,0.75594 -0.14797,0.36994 -0.15697,0.80243 -0.37798,1.13395 -0.0699,0.10483 -0.32163,-0.11271 -0.37797,0 -0.16904,0.33806 0,0.75594 0,1.13392 0,0.126 0,0.25199 0,0.37796 0,0.126 0.0891,0.2889 0,0.37799 -0.0891,0.0891 -0.32163,-0.11269 -0.37798,0 -0.11599,0.23198 0.11716,1.65557 0,1.88989 -0.20316,0.40629 -0.6123,0.70297 -0.75595,1.13392 -0.19782,0.59344 0.14615,1.30527 0,1.88987 -0.0966,0.38653 -0.32163,0.73951 -0.37798,1.13395 -0.10196,0.71374 0,1.85939 0,2.64583 0,0.12597 0.0564,0.26527 0,0.37796 -0.0797,0.15939 -0.34303,0.20325 -0.37797,0.37798 -0.10235,0.51176 0,2.26124 0,3.02382 0,1.00793 0,2.01586 0,3.02379 0,0.37799 0.0917,0.76724 0,1.13395 -0.0683,0.27332 -0.28889,0.48866 -0.37798,0.75594 -0.10571,0.31713 0.10679,1.67632 0,1.8899 -0.0797,0.15935 -0.29829,0.21859 -0.37798,0.37795 -0.096,0.19204 0.0496,0.88604 0,1.13393 -0.10187,0.5094 -0.30451,0.99766 -0.37797,1.51191 -0.0989,0.6926 0,1.54831 0,2.26787 0,0.25197 0,0.50395 0,0.75594 0,0.126 0.0563,0.2653 0,0.37799 -0.0797,0.15936 -0.33476,0.2051 -0.37798,0.37795 -0.0834,0.33372 0,1.74475 0,2.26788 0,1.51191 0,3.02379 0,4.5357 0,4.40973 0,8.81946 0,13.22917 0,7.05556 0,14.11112 0,21.16666 0,2.26788 0,4.53573 0,6.80358 0,0.62997 0,1.25992 0,1.88989 0,0.24836 0.0711,0.92067 0,1.13392 -0.0891,0.26726 -0.28888,0.48869 -0.37797,0.75595 -0.0797,0.23905 0.17818,0.57777 0,0.75596 -0.0891,0.0891 -0.28889,-0.0891 -0.37798,0 -0.0891,0.0891 0,0.25199 0,0.37796 0,0.126 0,0.25199 0,0.37798 0,0.126 0,0.25199 0,0.37799 0,0.12599 0.0891,0.28887 0,0.37798 -0.0891,0.0891 -0.28889,-0.0891 -0.37798,0 -0.0891,0.0891 0,0.25196 0,0.37796 0,0.37798 0,0.75597 0,1.13392 0,0.75597 0,1.51191 0,2.26788 0,0.0898 0.0424,1.42719 0,1.51191 -0.0797,0.15936 -0.32163,0.20894 -0.37797,0.37796 -0.0577,0.17303 0,1.67891 0,1.88989 0,0.1388 0.0152,1.49669 0,1.51191 -0.0891,0.0891 -0.28889,-0.0891 -0.37798,0 -0.0891,0.0891 0.0891,0.28887 0,0.37795 -0.0891,0.0891 -0.25198,0 -0.37797,0 -0.75596,0 -1.51191,0 -2.26786,0 -0.12599,0 -0.25199,0 -0.37798,0 -0.12599,0 -0.26528,0.0564 -0.37797,0 -0.15937,-0.0797 -0.25199,-0.25196 -0.37798,-0.37795 -0.12599,-0.126 -0.25199,-0.25199 -0.37798,-0.37799" />
    <text
       xml:space="preserve"
       style="font-style:normal;font-weight:normal;font-size:10.58333302px;line-height:1.25;font-family:sans-serif;letter-spacing:0px;word-spacing:0px;fill:#000000;fill-opacity:1;stroke:none;stroke-width:0.26458332"
       x="-73.327377"
       y="350.29465"
       id="text1681"><tspan
         sodipodi:role="line"
         id="tspan1679"
         x="-73.327377"
         y="350.29465"
         style="stroke-width:0.26458332">TO SE SCROLLA</tspan><tspan
         sodipodi:role="line"
         x="-73.327377"
         y="363.5238"
         style="stroke-width:0.26458332"
         id="tspan1683" /></text>
    <rect
       style="opacity:1;fill:#ffffff;fill-opacity:1;stroke:#000000;stroke-width:1.15531588;stroke-linecap:round;stroke-linejoin:round;stroke-miterlimit:4;stroke-dasharray:none;stroke-opacity:1;paint-order:normal"
       id="rect1685"
       width="236.6131"
       height="348.11606"
       x="-5.2916665"
       y="-161.48512" />
    <rect
       style="opacity:1;fill:#ffffff;fill-opacity:1;stroke:#000000;stroke-width:1;stroke-linecap:round;stroke-linejoin:round;stroke-miterlimit:4;stroke-dasharray:none;stroke-opacity:1;paint-order:normal"
       id="rect1607-8"
       width="236.6131"
       height="68.035721"
       x="-5.2916665"
       y="-161.48512" />
    <ellipse
       style="opacity:1;fill:#ffffff;fill-opacity:1;stroke:#000000;stroke-width:1;stroke-linecap:round;stroke-linejoin:round;stroke-miterlimit:4;stroke-dasharray:none;stroke-opacity:1;paint-order:normal"
       id="path1609-7"
       cx="31.750021"
       cy="-128.79018"
       rx="24.946428"
       ry="25.135416" />
    <text
       xml:space="preserve"
       style="font-style:normal;font-weight:normal;font-size:10.58333302px;line-height:1.25;font-family:sans-serif;letter-spacing:0px;word-spacing:0px;fill:#000000;fill-opacity:1;stroke:none;stroke-width:0.26458332"
       x="20.410696"
       y="-127.08928"
       id="text1613-0"><tspan
         sodipodi:role="line"
         id="tspan1611-2"
         x="20.410696"
         y="-127.08928"
         style="stroke-width:0.26458332">Logo</tspan></text>
    <flowRoot
       xml:space="preserve"
       id="flowRoot1615-8"
       style="font-style:normal;font-weight:normal;font-size:40px;line-height:1.25;font-family:sans-serif;letter-spacing:0px;word-spacing:0px;fill:#000000;fill-opacity:1;stroke:none"
       transform="matrix(0.26458333,0,0,0.26458333,418.04164,4.5357146)"><flowRegion
         id="flowRegion1617-4"><rect
           id="rect1619-8"
           width="332.85715"
           height="128.57143"
           x="-1274.2858"
           y="-530.33746" /></flowRegion><flowPara
         id="flowPara1621-2"
         style="font-style:normal;font-variant:normal;font-weight:normal;font-stretch:normal;font-size:60px;font-family:sans-serif;-inkscape-font-specification:'sans-serif, Normal';font-variant-ligatures:normal;font-variant-caps:normal;font-variant-numeric:normal;font-feature-settings:normal;text-align:start;writing-mode:lr-tb;text-anchor:start">Status</flowPara></flowRoot>    <text
       xml:space="preserve"
       style="font-style:normal;font-weight:normal;font-size:10.58333302px;line-height:1.25;font-family:sans-serif;letter-spacing:0px;word-spacing:0px;fill:#000000;fill-opacity:1;stroke:none;stroke-width:0.26458332"
       x="157.61604"
       y="-129.73512"
       id="text1625-5"><tspan
         sodipodi:role="line"
         id="tspan1623-7"
         x="157.61604"
         y="-129.73512"
         style="font-style:normal;font-variant:normal;font-weight:normal;font-stretch:normal;font-size:15.875px;font-family:sans-serif;-inkscape-font-specification:'sans-serif, Normal';font-variant-ligatures:normal;font-variant-caps:normal;font-variant-numeric:normal;font-feature-settings:normal;text-align:start;writing-mode:lr-tb;text-anchor:start;stroke-width:0.26458332">How to</tspan><tspan
         sodipodi:role="line"
         x="157.61604"
         y="-109.89137"
         style="font-style:normal;font-variant:normal;font-weight:normal;font-stretch:normal;font-size:15.875px;font-family:sans-serif;-inkscape-font-specification:'sans-serif, Normal';font-variant-ligatures:normal;font-variant-caps:normal;font-variant-numeric:normal;font-feature-settings:normal;text-align:start;writing-mode:lr-tb;text-anchor:start;stroke-width:0.26458332"
         id="tspan1627-9">Tutorial</tspan></text>
    <rect
       style="opacity:1;fill:#cccccc;fill-opacity:0.1835749;stroke:#000000;stroke-width:1;stroke-linecap:round;stroke-linejoin:round;stroke-miterlimit:4;stroke-dasharray:none;stroke-opacity:1;paint-order:normal"
       id="rect1732"
       width="57.452377"
       height="67.279762"
       x="78.241066"
       y="-161.10713" />
    <rect
       style="opacity:1;fill:#ffffff;fill-opacity:1;stroke:#000000;stroke-width:1.15531588;stroke-linecap:round;stroke-linejoin:round;stroke-miterlimit:4;stroke-dasharray:none;stroke-opacity:1;paint-order:normal"
       id="rect1685-5"
       width="236.6131"
       height="348.11606"
       x="277.05655"
       y="-159.02827" />
    <rect
       style="opacity:1;fill:#ffffff;fill-opacity:1;stroke:#000000;stroke-width:1;stroke-linecap:round;stroke-linejoin:round;stroke-miterlimit:4;stroke-dasharray:none;stroke-opacity:1;paint-order:normal"
       id="rect1607-8-1"
       width="236.6131"
       height="68.035721"
       x="277.05655"
       y="-159.02827" />
    <ellipse
       style="opacity:1;fill:#ffffff;fill-opacity:1;stroke:#000000;stroke-width:1;stroke-linecap:round;stroke-linejoin:round;stroke-miterlimit:4;stroke-dasharray:none;stroke-opacity:1;paint-order:normal"
       id="path1609-7-4"
       cx="314.09824"
       cy="-126.33332"
       rx="24.946428"
       ry="25.135416" />
    <text
       xml:space="preserve"
       style="font-style:normal;font-weight:normal;font-size:10.58333302px;line-height:1.25;font-family:sans-serif;letter-spacing:0px;word-spacing:0px;fill:#000000;fill-opacity:1;stroke:none;stroke-width:0.26458332"
       x="302.75891"
       y="-124.63242"
       id="text1613-0-5"><tspan
         sodipodi:role="line"
         id="tspan1611-2-8"
         x="302.75891"
         y="-124.63242"
         style="stroke-width:0.26458332">Logo</tspan></text>
    <flowRoot
       xml:space="preserve"
       id="flowRoot1615-8-0"
       style="font-style:normal;font-weight:normal;font-size:40px;line-height:1.25;font-family:sans-serif;letter-spacing:0px;word-spacing:0px;fill:#000000;fill-opacity:1;stroke:none"
       transform="matrix(0.26458333,0,0,0.26458333,700.38986,6.9925733)"><flowRegion
         id="flowRegion1617-4-9"><rect
           id="rect1619-8-4"
           width="332.85715"
           height="128.57143"
           x="-1274.2858"
           y="-530.33746" /></flowRegion><flowPara
         id="flowPara1621-2-1"
         style="font-style:normal;font-variant:normal;font-weight:normal;font-stretch:normal;font-size:60px;font-family:sans-serif;-inkscape-font-specification:'sans-serif, Normal';font-variant-ligatures:normal;font-variant-caps:normal;font-variant-numeric:normal;font-feature-settings:normal;text-align:start;writing-mode:lr-tb;text-anchor:start">Status</flowPara></flowRoot>    <text
       xml:space="preserve"
       style="font-style:normal;font-weight:normal;font-size:10.58333302px;line-height:1.25;font-family:sans-serif;letter-spacing:0px;word-spacing:0px;fill:#000000;fill-opacity:1;stroke:none;stroke-width:0.26458332"
       x="439.96426"
       y="-127.27827"
       id="text1625-5-7"><tspan
         sodipodi:role="line"
         id="tspan1623-7-2"
         x="439.96426"
         y="-127.27827"
         style="font-style:normal;font-variant:normal;font-weight:normal;font-stretch:normal;font-size:15.875px;font-family:sans-serif;-inkscape-font-specification:'sans-serif, Normal';font-variant-ligatures:normal;font-variant-caps:normal;font-variant-numeric:normal;font-feature-settings:normal;text-align:start;writing-mode:lr-tb;text-anchor:start;stroke-width:0.26458332">How to</tspan><tspan
         sodipodi:role="line"
         x="439.96426"
         y="-107.43452"
         style="font-style:normal;font-variant:normal;font-weight:normal;font-stretch:normal;font-size:15.875px;font-family:sans-serif;-inkscape-font-specification:'sans-serif, Normal';font-variant-ligatures:normal;font-variant-caps:normal;font-variant-numeric:normal;font-feature-settings:normal;text-align:start;writing-mode:lr-tb;text-anchor:start;stroke-width:0.26458332"
         id="tspan1627-9-3">Tutorial</tspan></text>
    <rect
       style="opacity:1;fill:#cccccc;fill-opacity:0.1835749;stroke:#000000;stroke-width:1.14192116;stroke-linecap:round;stroke-linejoin:round;stroke-miterlimit:4;stroke-dasharray:none;stroke-opacity:1;paint-order:normal"
       id="rect1732-1"
       width="75.07534"
       height="67.13784"
       x="437.7674"
       y="-158.95731" />
    <text
       xml:space="preserve"
       style="font-style:normal;font-weight:normal;font-size:10.58333302px;line-height:1.25;font-family:sans-serif;letter-spacing:0px;word-spacing:0px;fill:#000000;fill-opacity:1;stroke:none;stroke-width:0.26458332"
       x="20.032738"
       y="-58.675598"
       id="text1787"><tspan
         sodipodi:role="line"
         id="tspan1785"
         x="20.032738"
         y="-58.675598"
         style="stroke-width:0.26458332">Kao i status na desktop verziji</tspan><tspan
         sodipodi:role="line"
         x="20.032738"
         y="-45.44643"
         style="stroke-width:0.26458332"
         id="tspan1789">samo bitnije stvari stavit gori da se</tspan><tspan
         sodipodi:role="line"
         x="20.032738"
         y="-32.217266"
         style="stroke-width:0.26458332"
         id="tspan1791">ne triba skrolat za njih, ostatak se</tspan><tspan
         sodipodi:role="line"
         x="20.032738"
         y="-18.9881"
         style="stroke-width:0.26458332"
         id="tspan1793">moze skrolat ako ne moze stat</tspan></text>
    <text
       xml:space="preserve"
       style="font-style:normal;font-weight:normal;font-size:10.58333302px;line-height:1.25;font-family:sans-serif;letter-spacing:0px;word-spacing:0px;fill:#000000;fill-opacity:1;stroke:none;stroke-width:0.26458332"
       x="319.38989"
       y="-56.785713"
       id="text1805"><tspan
         sodipodi:role="line"
         id="tspan1803"
         x="319.38989"
         y="-56.785713"
         style="stroke-width:0.26458332">Neki tutorijal, najvjerojatnije</tspan><tspan
         sodipodi:role="line"
         x="319.38989"
         y="-43.556545"
         style="stroke-width:0.26458332"
         id="tspan1807">sami tekst jer mi se nece dat radit</tspan><tspan
         sodipodi:role="line"
         x="319.38989"
         y="-30.327381"
         style="stroke-width:0.26458332"
         id="tspan1809">interaktivnu verziju, tocnije nean</tspan><tspan
         sodipodi:role="line"
         x="319.38989"
         y="-17.098215"
         style="stroke-width:0.26458332"
         id="tspan1811">vrimena, za nesto sta je na </tspan><tspan
         sodipodi:role="line"
         x="319.38989"
         y="-3.8690481"
         style="stroke-width:0.26458332"
         id="tspan1813">kraju krajeva nebitno</tspan><tspan
         sodipodi:role="line"
         x="319.38989"
         y="9.3601179"
         style="stroke-width:0.26458332"
         id="tspan1815" /><tspan
         sodipodi:role="line"
         x="319.38989"
         y="22.589285"
         style="stroke-width:0.26458332"
         id="tspan1817">ISTINA BOLI</tspan></text>
    <rect
       style="opacity:1;fill:#ffffff;fill-opacity:1;stroke:#000000;stroke-width:1.15531588;stroke-linecap:round;stroke-linejoin:round;stroke-miterlimit:4;stroke-dasharray:none;stroke-opacity:1;paint-order:normal"
       id="rect1685-9"
       width="236.6131"
       height="348.11606"
       x="146.27678"
       y="277.53424" />
    <rect
       style="opacity:1;fill:none;fill-opacity:0.1835749;stroke:#000000;stroke-width:1.1737088;stroke-linecap:round;stroke-linejoin:round;stroke-miterlimit:4;stroke-dasharray:none;stroke-opacity:1;paint-order:normal"
       id="rect1834"
       width="236.4883"
       height="70.556732"
       x="146.33919"
       y="277.59665" />
    <text
       xml:space="preserve"
       style="font-style:normal;font-weight:normal;font-size:10.58333302px;line-height:1.25;font-family:sans-serif;letter-spacing:0px;word-spacing:0px;fill:#000000;fill-opacity:1;stroke:none;stroke-width:0.26458332"
       x="173.1131"
       y="315.52081"
       id="text1838"><tspan
         sodipodi:role="line"
         id="tspan1836"
         x="173.1131"
         y="325.1763"
         style="stroke-width:0.26458332" /></text>
    <rect
       style="opacity:1;fill:#d45500;fill-opacity:0.98550726;stroke:#000000;stroke-width:1;stroke-linecap:round;stroke-linejoin:round;stroke-miterlimit:4;stroke-dasharray:none;stroke-opacity:1;paint-order:normal"
       id="rect1840"
       width="31.372023"
       height="28.726189"
       x="161.39583"
       y="306.07144" />
    <rect
       style="opacity:1;fill:#ff0000;fill-opacity:0.98550726;stroke:#000000;stroke-width:1;stroke-linecap:round;stroke-linejoin:round;stroke-miterlimit:4;stroke-dasharray:none;stroke-opacity:1;paint-order:normal"
       id="rect1840-5"
       width="31.372023"
       height="28.726191"
       x="214.87947"
       y="305.69342" />
    <path
       style="fill:none;stroke:#000000;stroke-width:2;stroke-linecap:butt;stroke-linejoin:miter;stroke-opacity:1;stroke-miterlimit:4;stroke-dasharray:none"
       d="m 258.91369,319.67856 h 31.37202 l -2.64583,-1.13393"
       id="path1859"
       inkscape:connector-curvature="0" />
    <text
       xml:space="preserve"
       style="font-style:normal;font-weight:normal;font-size:10.58333302px;line-height:1.25;font-family:sans-serif;letter-spacing:0px;word-spacing:0px;fill:#000000;fill-opacity:1;stroke:none;stroke-width:0.26458332"
       x="161.39584"
       y="298.88986"
       id="text1863"><tspan
         sodipodi:role="line"
         id="tspan1861"
         x="161.39584"
         y="298.88986"
         style="font-style:normal;font-variant:normal;font-weight:normal;font-stretch:normal;font-size:7.05555534px;font-family:sans-serif;-inkscape-font-specification:'sans-serif, Normal';font-variant-ligatures:normal;font-variant-caps:normal;font-variant-numeric:normal;font-feature-settings:normal;text-align:start;writing-mode:lr-tb;text-anchor:start;stroke-width:0.26458332">Container</tspan></text>
    <text
       xml:space="preserve"
       style="font-style:normal;font-weight:normal;font-size:10.58333302px;line-height:1.25;font-family:sans-serif;letter-spacing:0px;word-spacing:0px;fill:#000000;fill-opacity:1;stroke:none;stroke-width:0.26458332"
       x="217.71428"
       y="297.37796"
       id="text1867"><tspan
         sodipodi:role="line"
         id="tspan1865"
         x="217.71428"
         y="297.37796"
         style="stroke-width:0.26458332;-inkscape-font-specification:'sans-serif, Normal';font-family:sans-serif;font-weight:normal;font-style:normal;font-stretch:normal;font-variant:normal;font-size:7.05555556px;text-anchor:start;text-align:start;writing-mode:lr;font-variant-ligatures:normal;font-variant-caps:normal;font-variant-numeric:normal;font-feature-settings:normal">Swarm</tspan></text>
    <text
       xml:space="preserve"
       style="font-style:normal;font-weight:normal;font-size:10.58333302px;line-height:1.25;font-family:sans-serif;letter-spacing:0px;word-spacing:0px;fill:#000000;fill-opacity:1;stroke:none;stroke-width:0.26458332"
       x="261.9375"
       y="294.35416"
       id="text1871"><tspan
         sodipodi:role="line"
         id="tspan1869"
         x="261.9375"
         y="294.35416"
         style="stroke-width:0.26458332;-inkscape-font-specification:'sans-serif, Normal';font-family:sans-serif;font-weight:normal;font-style:normal;font-stretch:normal;font-variant:normal;font-size:7.05555556px;text-anchor:start;text-align:start;writing-mode:lr;font-variant-ligatures:normal;font-variant-caps:normal;font-variant-numeric:normal;font-feature-settings:normal">Network</tspan><tspan
         sodipodi:role="line"
         x="261.9375"
         y="307.58331"
         style="stroke-width:0.26458332;-inkscape-font-specification:'sans-serif, Normal';font-family:sans-serif;font-weight:normal;font-style:normal;font-stretch:normal;font-variant:normal;font-size:7.05555556px;text-anchor:start;text-align:start;writing-mode:lr;font-variant-ligatures:normal;font-variant-caps:normal;font-variant-numeric:normal;font-feature-settings:normal"
         id="tspan1873">connector</tspan></text>
    <g
       id="g1893"
       transform="translate(177.27083,-118.68453)">
      <ellipse
         ry="10.343817"
         rx="11.073158"
         cy="436.23798"
         cx="152.65314"
         id="path891"
         style="opacity:1;fill:#f9f9f9;fill-opacity:1;stroke:#000000;stroke-width:1.02034891;stroke-linecap:butt;stroke-linejoin:miter;stroke-miterlimit:4;stroke-dasharray:none;stroke-opacity:1" />
      <path
         inkscape:connector-curvature="0"
         id="path895"
         d="m 161.1697,443.62065 18.85968,17.17784 h 0.14617 l -0.43861,0.16518"
         style="fill:none;stroke:#000000;stroke-width:2.05563354;stroke-linecap:butt;stroke-linejoin:miter;stroke-miterlimit:4;stroke-dasharray:none;stroke-opacity:1" />
    </g>
    <text
       xml:space="preserve"
       style="font-style:normal;font-weight:normal;font-size:10.58333302px;line-height:1.25;font-family:sans-serif;letter-spacing:0px;word-spacing:0px;fill:#000000;fill-opacity:1;stroke:none;stroke-width:0.26458332"
       x="315.18289"
       y="289.98779"
       id="text899"><tspan
         sodipodi:role="line"
         id="tspan897"
         x="315.18289"
         y="289.98779"
         style="stroke-width:0.26458332;-inkscape-font-specification:'sans-serif, Normal';font-family:sans-serif;font-weight:normal;font-style:normal;font-stretch:normal;font-variant:normal;font-size:7.05555556px;text-anchor:start;text-align:start;writing-mode:lr;font-variant-ligatures:normal;font-variant-caps:normal;font-variant-numeric:normal;font-feature-settings:normal">Inspect </tspan><tspan
         sodipodi:role="line"
         x="315.18289"
         y="303.21695"
         style="stroke-width:0.26458332;-inkscape-font-specification:'sans-serif, Normal';font-family:sans-serif;font-weight:normal;font-style:normal;font-stretch:normal;font-variant:normal;font-size:7.05555556px;text-anchor:start;text-align:start;writing-mode:lr;font-variant-ligatures:normal;font-variant-caps:normal;font-variant-numeric:normal;font-feature-settings:normal"
         id="tspan901"> mode</tspan></text>
    <text
       xml:space="preserve"
       style="font-style:normal;font-weight:normal;font-size:10.58333302px;line-height:1.25;font-family:sans-serif;letter-spacing:0px;word-spacing:0px;fill:#000000;fill-opacity:1;stroke:none;stroke-width:0.26458332"
       x="201.08333"
       y="265.62799"
       id="text1897"><tspan
         sodipodi:role="line"
         id="tspan1895"
         x="201.08333"
         y="265.62799"
         style="stroke-width:0.26458332">Toolbox se scrolla livo desno</tspan></text>
    <text
       xml:space="preserve"
       style="font-style:normal;font-weight:normal;font-size:10.58333302px;line-height:1.25;font-family:sans-serif;letter-spacing:0px;word-spacing:0px;fill:#000000;fill-opacity:1;stroke:none;stroke-width:0.26458332"
       x="203.72916"
       y="248.24106"
       id="text1901"><tspan
         sodipodi:role="line"
         id="tspan1899"
         x="203.72916"
         y="248.24106"
         style="stroke-width:0.26458332">Nakon klika na canvas botun</tspan></text>
    <text
       xml:space="preserve"
       style="font-style:normal;font-weight:normal;font-size:10.58333302px;line-height:1.25;font-family:sans-serif;letter-spacing:0px;word-spacing:0px;fill:#000000;fill-opacity:1;stroke:none;stroke-width:0.26458332"
       x="235.85715"
       y="483.72025"
       id="text1905"><tspan
         sodipodi:role="line"
         id="tspan1903"
         x="235.85715"
         y="483.72025"
         style="stroke-width:0.26458332">CANVAS</tspan></text>
    <rect
       style="opacity:1;fill:#f9f9f9;fill-opacity:1;stroke:#000000;stroke-width:0.5;stroke-linecap:round;stroke-linejoin:round;stroke-miterlimit:4;stroke-dasharray:none;stroke-opacity:1;paint-order:normal"
       id="rect899"
       width="55.59206"
       height="54.522984"
       x="229.60574"
       y="569.85162" />
    <path
       sodipodi:type="star"
       style="opacity:1;fill:#00f900;fill-opacity:1;stroke:#000000;stroke-width:0.5;stroke-linecap:round;stroke-linejoin:round;stroke-miterlimit:4;stroke-dasharray:none;stroke-opacity:1;paint-order:normal"
       id="path901"
       sodipodi:sides="3"
       sodipodi:cx="254.19454"
       sodipodi:cy="596.04404"
       sodipodi:r1="18.244938"
       sodipodi:r2="9.1224689"
       sodipodi:arg1="0"
       sodipodi:arg2="1.0471976"
       inkscape:flatsided="false"
       inkscape:rounded="0"
       inkscape:randomized="0"
       d="m 272.43947,596.04407 -13.6837,7.90029 -13.6837,7.90029 v -15.80058 -15.80058 l 13.6837,7.90029 z"
       inkscape:transform-center-x="-4.5612351" />
    <text
       xml:space="preserve"
       style="font-style:normal;font-weight:normal;font-size:10.58333302px;line-height:1.25;font-family:sans-serif;letter-spacing:0px;word-spacing:0px;fill:#000000;fill-opacity:1;stroke:none;stroke-width:0.26458332"
       x="141.3631"
       y="654.94342"
       id="text1917"><tspan
         sodipodi:role="line"
         id="tspan1915"
         x="141.3631"
         y="654.94342"
         style="stroke-width:0.26458332">Na sredini jer ga je tu teze slucajno stisnit,</tspan><tspan
         sodipodi:role="line"
         x="141.3631"
         y="668.17261"
         style="stroke-width:0.26458332"
         id="tspan1919">doli jer je toolbox gori pa da se ne prilazi priko njega</tspan></text>
  </g>
</svg>
